<svg width="40" height="40" viewBox="0 0 40 40" fill="none" xmlns="http://www.w3.org/2000/svg">
<path d="M39.8881 22.1034C39.5693 25.1627 38.5463 28.1066 36.8992 30.7044V30.7056C34.5405 34.4163 31.0293 37.2505 26.9045 38.7733C24.3955 38.4959 21.974 37.6892 19.8 36.4064C19.3004 36.1121 18.8183 35.7952 18.3538 35.4559C15.7772 33.5769 13.7451 31.0482 12.4646 28.1277C16.5739 30.0691 21.2198 30.5604 25.6443 29.5215C26.2071 29.388 26.7627 29.2307 27.3073 29.0504C30.6922 27.929 33.7171 25.9259 36.0709 23.2474C36.4739 22.7899 36.8551 22.3144 37.2147 21.8207C38.2857 20.3518 39.1502 18.743 39.784 17.0392C40.0327 18.7161 40.0677 20.4177 39.8881 22.1034Z" fill="#F6AF41"/>
<path d="M27.509 11.869C23.4006 9.92773 18.7554 9.43653 14.3317 10.4755C13.7679 10.6077 13.2132 10.7643 12.6676 10.9453H12.6664C9.28165 12.0676 6.25677 14.0709 3.90272 16.7495C3.49976 17.207 3.11839 17.683 2.75861 18.1774C1.69814 19.6317 0.840153 21.2234 0.208184 22.9087C-0.274438 19.5754 0.0852159 16.1744 1.25434 13.0158C1.7312 11.7334 2.33963 10.5038 3.0699 9.34676C5.4268 5.61134 8.94986 2.7575 13.0932 1.22742C15.5936 1.50767 18.0066 2.31343 20.1737 3.59182C20.6731 3.88501 21.1559 4.2019 21.622 4.54251C24.1979 6.42095 26.2293 8.94909 27.509 11.869Z" fill="#27A3C4"/>
<path d="M38.7637 13.0675C38.486 15.5809 37.6784 18.0069 36.3941 20.1851C36.1009 20.6846 35.784 21.1674 35.4434 21.6335C33.5649 24.2094 31.0367 26.2408 28.1167 27.5204C30.058 23.412 30.5492 18.7668 29.5101 14.3431C29.3768 13.7791 29.2184 13.2222 29.0382 12.6764H29.037C27.9163 9.29212 25.9135 6.2679 23.235 3.91535C22.7775 3.51239 22.3019 3.13112 21.8082 2.77152C20.3486 1.70682 18.7505 0.846413 17.0581 0.214125C20.4085 -0.278431 23.8289 0.0820152 27.003 1.26211C28.2885 1.74137 29.5207 2.35288 30.6798 3.08679C34.3943 5.43919 37.2341 8.94546 38.7637 13.0675Z" fill="#359C6A"/>
<path d="M22.9287 39.7882C19.578 40.2784 16.1578 39.9154 12.9846 38.7331C11.704 38.2553 10.4764 37.6458 9.32167 36.9144C5.58859 34.5517 2.73936 31.0234 1.21582 26.8765V26.8753C1.49789 24.3808 2.30296 21.9738 3.57844 19.8115C3.87163 19.3121 4.18849 18.8297 4.52902 18.3644C6.40808 15.7879 8.93687 13.7559 11.8575 12.4756C9.91606 16.5848 9.42467 21.2308 10.4635 25.6553C10.5969 26.2193 10.7539 26.774 10.9345 27.3195C12.0564 30.7045 14.0598 33.7295 16.7387 36.0832C17.1952 36.4859 17.6705 36.8667 18.1646 37.2257C19.6281 38.2936 21.231 39.1558 22.9287 39.7882Z" fill="#DB2236"/>
<path d="M22.0132 17.9383C22.0156 19.5605 21.685 21.1659 21.0419 22.6551C20.3987 24.1444 19.4568 25.4858 18.2744 26.5963C18.8459 25.9327 19.2534 25.1441 19.464 24.2941C19.6746 23.4441 19.6824 22.5564 19.4868 21.7028C19.2912 20.8492 18.8977 20.0536 18.338 19.3801C17.7783 18.7065 17.068 18.174 16.2646 17.8255C16.4017 17.8153 16.541 17.8099 16.6813 17.8099C18.0709 17.8081 19.4093 18.3348 20.425 19.2832C21.221 16.3253 20.8496 13.1746 19.3877 10.4828C21.0906 12.5941 22.0174 15.2259 22.0132 17.9383Z" fill="#151F59"/>
<path d="M26.8178 19.8794C26.8186 21.0696 26.5269 22.2418 25.9681 23.2927C25.4094 24.3436 24.6009 25.241 23.6138 25.9059C23.6128 25.9068 23.6117 25.9076 23.6105 25.9081C22.7575 26.4823 21.7924 26.869 20.7789 27.0427C19.7654 27.2164 18.7266 27.1732 17.7311 26.9159C16.7355 26.6586 15.8059 26.193 15.0035 25.55C14.2011 24.907 13.5442 24.101 13.0762 23.1855C13.6959 24.0885 14.5312 24.8227 15.5064 25.3214C16.4815 25.82 17.5657 26.0675 18.6606 26.0414C19.7556 26.0152 20.8267 25.7163 21.7769 25.1716C22.7272 24.627 23.5265 23.8538 24.1024 22.9222C24.6784 21.9906 25.0128 20.93 25.0753 19.8365C25.1378 18.7431 24.9265 17.6513 24.4605 16.6601C23.9945 15.6689 23.2886 14.8096 22.4066 14.1602C21.5246 13.5108 20.4946 13.0917 19.4097 12.9409C19.1095 12.899 18.8068 12.8781 18.5036 12.8783C18.047 12.8781 17.5916 12.9253 17.1447 13.0191C18.213 12.646 19.3536 12.5269 20.4759 12.6712C21.5982 12.8156 22.6715 13.2194 23.6105 13.8508C23.6117 13.8513 23.6128 13.852 23.6138 13.8529C24.6009 14.5179 25.4093 15.4154 25.9681 16.4662C26.5268 17.5171 26.8186 18.6893 26.8178 19.8794Z" fill="#004691"/>
<path d="M13.1318 19.8789C13.1297 21.1408 13.4719 22.3794 14.1216 23.4612C13.4463 22.6908 12.9769 21.762 12.7572 20.7613C12.5375 19.7606 12.5746 18.7206 12.8651 17.7381C13.1555 16.7556 13.6899 15.8626 14.4184 15.1422C15.1469 14.4219 16.0458 13.8976 17.0315 13.6182C15.8612 14.1928 14.8755 15.0841 14.1861 16.1907C13.4968 17.2974 13.1316 18.5751 13.1318 19.8789Z" fill="#004691"/>
<path d="M19.6512 17.8121C20.0473 17.6213 20.1416 16.9959 19.8619 16.4152C19.5822 15.8345 19.0344 15.5185 18.6383 15.7092C18.2422 15.9 18.1479 16.5254 18.4276 17.1061C18.7073 17.6868 19.2551 18.0029 19.6512 17.8121Z" fill="#151F59"/>
</svg>
