<svg width="81" height="80" viewBox="0 0 81 80" fill="none" xmlns="http://www.w3.org/2000/svg">
<path d="M79.7758 44.206C79.1382 50.3246 77.0921 56.2124 73.798 61.4079V61.4103C69.0805 68.8316 62.0583 74.5 53.8087 77.5457C48.7908 76.9909 43.9478 75.3774 39.5997 72.8119C38.6005 72.2232 37.6365 71.5895 36.7074 70.9108C31.5543 67.1529 27.49 62.0956 24.9291 56.2545C33.1476 60.1373 42.4394 61.12 51.2883 59.0421C52.4139 58.7752 53.5251 58.4606 54.6144 58.0999C61.384 55.8571 67.4339 51.851 72.1415 46.494C72.9474 45.5791 73.7099 44.6279 74.429 43.6405C76.571 40.7029 78.3 37.4852 79.5675 34.0776C80.0649 37.4314 80.1349 40.8347 79.7758 44.206Z" fill="#F6AF41"/>
<path d="M55.0178 23.7381C46.8009 19.8556 37.5105 18.8732 28.6633 20.9512C27.5356 21.2156 26.4262 21.5288 25.3351 21.8908H25.3327C18.5632 24.1353 12.5135 28.142 7.80539 33.499C6.99948 34.4141 6.23675 35.366 5.51719 36.3548C3.39626 39.2635 1.6803 42.4468 0.416365 45.8174C-0.548872 39.1509 0.170431 32.3489 2.50866 26.0318C3.46238 23.4669 4.67924 21.0078 6.13976 18.6937C10.8535 11.2229 17.8996 5.51522 26.1862 2.45508C31.1871 3.01558 36.0129 4.62709 40.3471 7.18386C41.346 7.77023 42.3116 8.40402 43.2438 9.08522C48.3955 12.8421 52.4583 17.8983 55.0178 23.7381Z" fill="#27A3C4"/>
<path d="M77.5269 26.1349C76.9716 31.1617 75.3564 36.0135 72.7878 40.37C72.2015 41.369 71.5677 42.3346 70.8864 43.2667C67.1294 48.4184 62.073 52.4812 56.2331 55.0406C60.1156 46.8237 61.098 37.5333 59.02 28.6861C58.7533 27.5581 58.4365 26.4442 58.0761 25.3526H58.0737C55.8323 18.5841 51.8267 12.5357 46.4697 7.83065C45.5548 7.02475 44.6036 6.2622 43.6162 5.543C40.6971 3.41363 37.5008 1.69282 34.116 0.428248C40.8167 -0.556859 47.6576 0.164029 54.0057 2.52421C56.5767 3.48271 59.0411 4.70572 61.3593 6.17355C68.7881 10.8783 74.4679 17.8908 77.5269 26.1349Z" fill="#359C6A"/>
<path d="M45.8572 79.5761C39.1559 80.5564 32.3155 79.8306 25.9691 77.4658C23.4078 76.5103 20.9527 75.2913 18.6433 73.8284C11.1771 69.1032 5.47869 62.0466 2.43164 53.7528V53.7504C2.99578 48.7614 4.6059 43.9475 7.15686 39.623C7.74323 38.6241 8.37694 37.6593 9.058 36.7288C12.8161 31.5758 17.8737 27.5118 23.7148 24.9512C19.832 33.1696 18.8493 42.4615 20.9269 51.3104C21.1937 52.4384 21.5077 53.5478 21.869 54.6388C24.1126 61.4088 28.1195 67.4587 33.4772 72.1662C34.3902 72.9716 35.3408 73.7332 36.329 74.4511C39.256 76.5868 42.4619 78.3112 45.8572 79.5761Z" fill="#DB2236"/>
<path d="M44.0262 35.8768C44.0309 39.1211 43.3697 42.3319 42.0835 45.3104C40.7973 48.2888 38.9134 50.9716 36.5486 53.1926C37.6915 51.8655 38.5065 50.2883 38.9277 48.5883C39.349 46.8883 39.3646 45.113 38.9734 43.4058C38.5822 41.6986 37.7952 40.1073 36.6757 38.7603C35.5563 37.4132 34.1359 36.3483 32.5291 35.6513C32.8033 35.6308 33.0817 35.62 33.3624 35.62C36.1417 35.6163 38.8183 36.6697 40.8497 38.5665C42.4417 32.6507 41.699 26.3494 38.7752 20.9658C42.181 25.1884 44.0346 30.4519 44.0262 35.8768Z" fill="#151F59"/>
<path d="M53.6353 39.759C53.637 42.1394 53.0534 44.4837 51.936 46.5855C50.8186 48.6873 49.2016 50.4821 47.2273 51.812C47.2254 51.8138 47.2232 51.8152 47.2208 51.8163C45.5148 52.9646 43.5846 53.738 41.5576 54.0854C39.5306 54.4328 37.453 54.3464 35.4619 53.8318C33.4709 53.3172 31.6116 52.3861 30.0068 51.1001C28.402 49.814 27.0882 48.2022 26.1522 46.3711C27.3917 48.1772 29.0623 49.6454 31.0126 50.6428C32.9629 51.6402 35.1312 52.1352 37.3211 52.0829C39.511 52.0306 41.6532 51.4327 43.5537 50.3434C45.4541 49.254 47.0527 47.7077 48.2046 45.8445C49.3565 43.9813 50.0253 41.8602 50.1504 39.6732C50.2754 37.4863 49.8528 35.3027 48.9208 33.3203C47.9888 31.338 46.5769 29.6195 44.813 28.3207C43.0491 27.0218 40.989 26.1836 38.8193 25.882C38.2189 25.7982 37.6133 25.7564 37.0071 25.7568C36.0939 25.7563 35.183 25.8508 34.2893 26.0385C36.4259 25.2922 38.7069 25.0539 40.9516 25.3427C43.1962 25.6314 45.3427 26.4391 47.2208 27.7018C47.2232 27.7028 47.2254 27.7043 47.2273 27.7061C49.2015 29.0361 50.8184 30.8309 51.9359 32.9327C53.0533 35.0345 53.6369 37.3787 53.6353 39.759Z" fill="#004691"/>
<path d="M26.2635 39.7577C26.2593 42.2815 26.9437 44.7587 28.243 46.9223C26.8924 45.3814 25.9537 43.5238 25.5143 41.5225C25.0749 39.5211 25.1491 37.4411 25.73 35.4761C26.3109 33.5112 27.3796 31.7252 28.8366 30.2845C30.2936 28.8437 32.0915 27.7951 34.0628 27.2363C31.7222 28.3857 29.7508 30.1681 28.3721 32.3814C26.9935 34.5947 26.263 37.1502 26.2635 39.7577Z" fill="#004691"/>
<path d="M39.3022 35.6241C40.0944 35.2425 40.283 33.9918 39.7236 32.8304C39.1642 31.669 38.0685 31.0369 37.2764 31.4185C36.4843 31.8001 36.2956 33.0508 36.855 34.2122C37.4144 35.3735 38.5101 36.0057 39.3022 35.6241Z" fill="#151F59"/>
</svg>
