<svg width="414" height="252" viewBox="0 0 414 252" fill="none" xmlns="http://www.w3.org/2000/svg">
<path d="M157.762 28.875C175.062 28.875 189.087 42.9273 189.087 60.2617V75.0135H115.786C98.4861 75.0135 84.4614 60.9612 84.4614 43.6268V28.875H157.762Z" fill="url(#paint0_linear_751_49659)"/>
<path d="M26.5103 227.867H393.326C404.744 227.867 414 237.142 414 248.582H47.1847C35.7665 248.582 26.5103 239.308 26.5103 227.867Z" fill="url(#paint1_linear_751_49659)"/>
<path fill-rule="evenodd" clip-rule="evenodd" d="M205.504 15.6356C206.267 15.6356 206.885 15.0161 206.885 14.2519C206.885 13.4877 206.267 12.8682 205.504 12.8682C204.741 12.8682 204.123 13.4877 204.123 14.2519C204.123 15.0161 204.741 15.6356 205.504 15.6356ZM206.885 19.7867C206.885 20.5508 206.267 21.1703 205.504 21.1703C204.741 21.1703 204.123 20.5508 204.123 19.7867C204.123 19.0225 204.741 18.403 205.504 18.403C206.267 18.403 206.885 19.0225 206.885 19.7867ZM205.504 26.7051C206.267 26.7051 206.885 26.0856 206.885 25.3214C206.885 24.5572 206.267 23.9377 205.504 23.9377C204.741 23.9377 204.123 24.5572 204.123 25.3214C204.123 26.0856 204.741 26.7051 205.504 26.7051ZM206.885 30.8562C206.885 31.6204 206.267 32.2399 205.504 32.2399C204.741 32.2399 204.123 31.6204 204.123 30.8562C204.123 30.092 204.741 29.4725 205.504 29.4725C206.267 29.4725 206.885 30.092 206.885 30.8562ZM205.504 37.7747C206.267 37.7747 206.885 37.1552 206.885 36.391C206.885 35.6268 206.267 35.0073 205.504 35.0073C204.741 35.0073 204.123 35.6268 204.123 36.391C204.123 37.1552 204.741 37.7747 205.504 37.7747ZM205.504 43.3095C206.267 43.3095 206.885 42.69 206.885 41.9258C206.885 41.1616 206.267 40.5421 205.504 40.5421C204.741 40.5421 204.123 41.1616 204.123 41.9258C204.123 42.69 204.741 43.3095 205.504 43.3095ZM212.409 41.9258C212.409 42.69 211.791 43.3095 211.028 43.3095C210.266 43.3095 209.647 42.69 209.647 41.9258C209.647 41.1616 210.266 40.5421 211.028 40.5421C211.791 40.5421 212.409 41.1616 212.409 41.9258ZM211.028 37.7747C211.791 37.7747 212.409 37.1552 212.409 36.391C212.409 35.6268 211.791 35.0073 211.028 35.0073C210.266 35.0073 209.647 35.6268 209.647 36.391C209.647 37.1552 210.266 37.7747 211.028 37.7747ZM212.409 30.8562C212.409 31.6204 211.791 32.2399 211.028 32.2399C210.266 32.2399 209.647 31.6204 209.647 30.8562C209.647 30.092 210.266 29.4725 211.028 29.4725C211.791 29.4725 212.409 30.092 212.409 30.8562ZM211.028 26.7051C211.791 26.7051 212.409 26.0856 212.409 25.3214C212.409 24.5572 211.791 23.9377 211.028 23.9377C210.266 23.9377 209.647 24.5572 209.647 25.3214C209.647 26.0856 210.266 26.7051 211.028 26.7051ZM212.409 19.7867C212.409 20.5508 211.791 21.1703 211.028 21.1703C210.266 21.1703 209.647 20.5508 209.647 19.7867C209.647 19.0225 210.266 18.403 211.028 18.403C211.791 18.403 212.409 19.0225 212.409 19.7867ZM211.028 15.6356C211.791 15.6356 212.409 15.0161 212.409 14.2519C212.409 13.4877 211.791 12.8682 211.028 12.8682C210.266 12.8682 209.647 13.4877 209.647 14.2519C209.647 15.0161 210.266 15.6356 211.028 15.6356ZM217.934 41.9258C217.934 42.69 217.315 43.3095 216.553 43.3095C215.79 43.3095 215.172 42.69 215.172 41.9258C215.172 41.1616 215.79 40.5421 216.553 40.5421C217.315 40.5421 217.934 41.1616 217.934 41.9258ZM216.553 37.7747C217.315 37.7747 217.934 37.1552 217.934 36.391C217.934 35.6268 217.315 35.0073 216.553 35.0073C215.79 35.0073 215.172 35.6268 215.172 36.391C215.172 37.1552 215.79 37.7747 216.553 37.7747ZM217.934 30.8562C217.934 31.6204 217.315 32.2399 216.553 32.2399C215.79 32.2399 215.172 31.6204 215.172 30.8562C215.172 30.092 215.79 29.4725 216.553 29.4725C217.315 29.4725 217.934 30.092 217.934 30.8562ZM216.553 26.7051C217.315 26.7051 217.934 26.0856 217.934 25.3214C217.934 24.5572 217.315 23.9377 216.553 23.9377C215.79 23.9377 215.172 24.5572 215.172 25.3214C215.172 26.0856 215.79 26.7051 216.553 26.7051ZM217.934 19.7867C217.934 20.5508 217.315 21.1703 216.553 21.1703C215.79 21.1703 215.172 20.5508 215.172 19.7867C215.172 19.0225 215.79 18.403 216.553 18.403C217.315 18.403 217.934 19.0225 217.934 19.7867ZM216.553 15.6356C217.315 15.6356 217.934 15.0161 217.934 14.2519C217.934 13.4877 217.315 12.8682 216.553 12.8682C215.79 12.8682 215.172 13.4877 215.172 14.2519C215.172 15.0161 215.79 15.6356 216.553 15.6356ZM223.458 41.9258C223.458 42.69 222.84 43.3095 222.077 43.3095C221.314 43.3095 220.696 42.69 220.696 41.9258C220.696 41.1616 221.314 40.5421 222.077 40.5421C222.84 40.5421 223.458 41.1616 223.458 41.9258ZM222.077 37.7747C222.84 37.7747 223.458 37.1552 223.458 36.391C223.458 35.6268 222.84 35.0073 222.077 35.0073C221.314 35.0073 220.696 35.6268 220.696 36.391C220.696 37.1552 221.314 37.7747 222.077 37.7747ZM223.458 30.8562C223.458 31.6204 222.84 32.2399 222.077 32.2399C221.314 32.2399 220.696 31.6204 220.696 30.8562C220.696 30.092 221.314 29.4725 222.077 29.4725C222.84 29.4725 223.458 30.092 223.458 30.8562ZM222.077 26.7051C222.84 26.7051 223.458 26.0856 223.458 25.3214C223.458 24.5572 222.84 23.9377 222.077 23.9377C221.314 23.9377 220.696 24.5572 220.696 25.3214C220.696 26.0856 221.314 26.7051 222.077 26.7051ZM223.458 19.7867C223.458 20.5508 222.84 21.1703 222.077 21.1703C221.314 21.1703 220.696 20.5508 220.696 19.7867C220.696 19.0225 221.314 18.403 222.077 18.403C222.84 18.403 223.458 19.0225 223.458 19.7867ZM222.077 15.6356C222.84 15.6356 223.458 15.0161 223.458 14.2519C223.458 13.4877 222.84 12.8682 222.077 12.8682C221.314 12.8682 220.696 13.4877 220.696 14.2519C220.696 15.0161 221.314 15.6356 222.077 15.6356ZM228.982 41.9258C228.982 42.69 228.364 43.3095 227.601 43.3095C226.838 43.3095 226.22 42.69 226.22 41.9258C226.22 41.1616 226.838 40.5421 227.601 40.5421C228.364 40.5421 228.982 41.1616 228.982 41.9258ZM227.601 37.7747C228.364 37.7747 228.982 37.1552 228.982 36.391C228.982 35.6268 228.364 35.0073 227.601 35.0073C226.838 35.0073 226.22 35.6268 226.22 36.391C226.22 37.1552 226.838 37.7747 227.601 37.7747ZM228.982 30.8562C228.982 31.6204 228.364 32.2399 227.601 32.2399C226.838 32.2399 226.22 31.6204 226.22 30.8562C226.22 30.092 226.838 29.4725 227.601 29.4725C228.364 29.4725 228.982 30.092 228.982 30.8562ZM227.601 26.7051C228.364 26.7051 228.982 26.0856 228.982 25.3214C228.982 24.5572 228.364 23.9377 227.601 23.9377C226.838 23.9377 226.22 24.5572 226.22 25.3214C226.22 26.0856 226.838 26.7051 227.601 26.7051ZM228.982 19.7867C228.982 20.5508 228.364 21.1703 227.601 21.1703C226.838 21.1703 226.22 20.5508 226.22 19.7867C226.22 19.0225 226.838 18.403 227.601 18.403C228.364 18.403 228.982 19.0225 228.982 19.7867ZM227.601 15.6356C228.364 15.6356 228.982 15.0161 228.982 14.2519C228.982 13.4877 228.364 12.8682 227.601 12.8682C226.838 12.8682 226.22 13.4877 226.22 14.2519C226.22 15.0161 226.838 15.6356 227.601 15.6356ZM234.506 41.9258C234.506 42.69 233.888 43.3095 233.125 43.3095C232.363 43.3095 231.744 42.69 231.744 41.9258C231.744 41.1616 232.363 40.5421 233.125 40.5421C233.888 40.5421 234.506 41.1616 234.506 41.9258ZM233.125 37.7747C233.888 37.7747 234.506 37.1552 234.506 36.391C234.506 35.6268 233.888 35.0073 233.125 35.0073C232.363 35.0073 231.744 35.6268 231.744 36.391C231.744 37.1552 232.363 37.7747 233.125 37.7747ZM234.506 30.8562C234.506 31.6204 233.888 32.2399 233.125 32.2399C232.363 32.2399 231.744 31.6204 231.744 30.8562C231.744 30.092 232.363 29.4725 233.125 29.4725C233.888 29.4725 234.506 30.092 234.506 30.8562ZM233.125 26.7051C233.888 26.7051 234.506 26.0856 234.506 25.3214C234.506 24.5572 233.888 23.9377 233.125 23.9377C232.363 23.9377 231.744 24.5572 231.744 25.3214C231.744 26.0856 232.363 26.7051 233.125 26.7051ZM234.506 19.7867C234.506 20.5508 233.888 21.1703 233.125 21.1703C232.363 21.1703 231.744 20.5508 231.744 19.7867C231.744 19.0225 232.363 18.403 233.125 18.403C233.888 18.403 234.506 19.0225 234.506 19.7867ZM233.125 15.6356C233.888 15.6356 234.506 15.0161 234.506 14.2519C234.506 13.4877 233.888 12.8682 233.125 12.8682C232.363 12.8682 231.744 13.4877 231.744 14.2519C231.744 15.0161 232.363 15.6356 233.125 15.6356Z" fill="url(#paint2_linear_751_49659)"/>
<path d="M93.5457 59.0617C75.9157 67.0399 61.8208 66.9389 51.2611 58.7586C40.7015 50.5784 34.0174 38.93 31.209 23.8135C64.2167 13.8818 84.9956 25.6312 93.5457 59.0617Z" fill="url(#paint3_linear_751_49659)"/>
<path d="M67.514 44.7165C63.7089 42.5536 59.4778 40.1568 54.8208 37.5261L44.0182 40.1179C43.8266 40.1639 43.6342 40.045 43.5884 39.8523C43.5427 39.6596 43.661 39.4661 43.8526 39.4201L53.9043 37.0084C48.092 33.7263 41.632 30.0884 34.5241 26.0948C34.3521 25.9982 34.2906 25.7796 34.3867 25.6067C34.4828 25.4337 34.7001 25.3718 34.8721 25.4685C47.8502 32.7603 58.6688 38.8663 67.3284 43.7869L66.2111 32.7756C66.1628 32.2997 66.8726 32.2269 66.9208 32.7027L68.0895 44.2195C79.6349 50.7832 87.2272 55.1763 90.8679 57.3997C91.0363 57.5025 91.0899 57.7232 90.9876 57.8925C90.8853 58.0618 90.6659 58.1157 90.4975 58.0129C88.3191 56.6825 84.7201 54.572 79.7009 51.6817C79.6877 51.6886 79.6739 51.6947 79.6596 51.6999L69.7874 55.3252C69.6023 55.3932 69.3975 55.2974 69.3299 55.1113C69.2623 54.9252 69.3576 54.7193 69.5426 54.6513L78.8938 51.2173C75.6856 49.3724 71.9304 47.227 67.6281 44.7814C67.5866 44.7674 67.5477 44.7459 67.514 44.7165Z" fill="white"/>
<path d="M89.5977 69.0508C71.4752 62.1714 61.5526 52.1047 59.83 38.8505C58.1074 25.5963 61.5768 12.6462 70.2381 0C100.641 16.4078 107.094 39.4248 89.5977 69.0508Z" fill="url(#paint4_linear_751_49659)"/>
<path d="M82.1322 40.5842C85.6721 53.4323 87.946 61.9355 88.9545 66.0956C89.0011 66.288 88.8842 66.4821 88.6932 66.5291C88.5023 66.5761 88.3097 66.4583 88.263 66.2658C87.6596 63.7766 86.6013 59.7261 85.0882 54.1145C85.0741 54.1099 85.0601 54.1044 85.0463 54.0979L75.539 49.6427C75.3607 49.5592 75.2834 49.3459 75.3663 49.1663C75.4492 48.9867 75.6609 48.9088 75.8391 48.9923L84.8447 53.2124C83.8758 49.6273 82.7318 45.441 81.4126 40.6534C81.393 40.6141 81.3807 40.5712 81.3776 40.5264C80.2107 36.2922 78.9074 31.5898 77.4677 26.4194L68.0289 20.572C67.8615 20.4683 67.8092 20.2474 67.9121 20.0787C68.0151 19.9099 68.2342 19.8572 68.4017 19.961L77.1843 25.4018C75.3867 18.9494 73.3816 11.785 71.1691 3.90858C71.1156 3.71799 71.2255 3.51975 71.4146 3.4658C71.6037 3.41185 71.8005 3.52261 71.854 3.7132C75.8937 18.0946 79.2419 30.1024 81.8988 39.7373L88.8353 31.1582C89.135 30.7875 89.6868 31.2406 89.3871 31.6113L82.1322 40.5842Z" fill="white"/>
<path d="M107.642 81.4682C92.6759 93.771 79.0455 97.3455 66.7505 92.1916C54.4556 87.0377 45.0099 77.5226 38.4136 63.6463C67.72 45.4493 90.7961 51.3899 107.642 81.4682Z" fill="url(#paint5_linear_751_49659)"/>
<path d="M79.1891 73.4821C92.0215 76.8078 100.48 79.0687 104.566 80.2654C104.755 80.3207 104.863 80.5193 104.808 80.709C104.753 80.8986 104.555 81.0075 104.366 80.9521C101.921 80.2361 97.9045 79.1374 92.3163 77.6561C92.3053 77.6661 92.2936 77.6756 92.2811 77.6843L83.6845 83.738C83.5233 83.8515 83.301 83.8124 83.1879 83.6507C83.0748 83.489 83.1137 83.2659 83.2749 83.1524L91.4178 77.4182C87.8466 76.4738 83.6701 75.3821 78.8883 74.143C78.8446 74.1404 78.8015 74.1297 78.7614 74.1101C74.5323 73.0144 69.8318 71.8039 64.66 70.4787L54.8995 75.7785C54.7264 75.8725 54.51 75.8079 54.4163 75.6341C54.3226 75.4604 54.387 75.2433 54.5602 75.1493L63.6422 70.218C57.1878 68.5651 50.0165 66.7377 42.1285 64.7359C41.9377 64.6874 41.8221 64.4929 41.8703 64.3014C41.9186 64.1099 42.1125 63.9939 42.3034 64.0423C56.7059 67.6975 68.719 70.771 78.3432 73.263L74.4325 62.9473C74.2635 62.5016 74.9299 62.2472 75.0989 62.693L79.1891 73.4821Z" fill="white"/>
<path d="M90.7264 46.1387H356.049C359.509 46.1387 362.314 48.9491 362.314 52.416V242.62C362.314 246.086 359.509 248.897 356.049 248.897H90.7264C87.2664 248.897 84.4614 246.086 84.4614 242.62V52.416C84.4614 48.9491 87.2664 46.1387 90.7264 46.1387Z" fill="url(#paint6_linear_751_49659)"/>
<path fill-rule="evenodd" clip-rule="evenodd" d="M128.003 84.4307H99.4976C98.8056 84.4307 98.2446 84.9928 98.2446 85.6861V110.168C98.2446 110.861 98.8056 111.423 99.4976 111.423H128.003C128.695 111.423 129.256 110.861 129.256 110.168V85.6861C129.256 84.9928 128.695 84.4307 128.003 84.4307ZM128.003 123.978H99.4976C98.8056 123.978 98.2446 124.54 98.2446 125.233V149.715C98.2446 150.408 98.8056 150.971 99.4976 150.971H128.003C128.695 150.971 129.256 150.408 129.256 149.715V125.233C129.256 124.54 128.695 123.978 128.003 123.978ZM99.4976 163.525H128.003C128.695 163.525 129.256 164.087 129.256 164.781V189.262C129.256 189.956 128.695 190.518 128.003 190.518H99.4976C98.8056 190.518 98.2446 189.956 98.2446 189.262V164.781C98.2446 164.087 98.8056 163.525 99.4976 163.525ZM128.003 203.072H99.4976C98.8056 203.072 98.2446 203.635 98.2446 204.328V228.81C98.2446 229.503 98.8056 230.065 99.4976 230.065H128.003C128.695 230.065 129.256 229.503 129.256 228.81V204.328C129.256 203.635 128.695 203.072 128.003 203.072Z" fill="url(#paint7_linear_751_49659)"/>
<path d="M143.039 84.4307H349.428C350.12 84.4307 350.681 84.9928 350.681 85.6861V229.035C350.681 229.729 350.12 230.291 349.428 230.291H143.039C142.347 230.291 141.786 229.729 141.786 229.035V85.6861C141.786 84.9928 142.347 84.4307 143.039 84.4307Z" fill="white"/>
<path fill-rule="evenodd" clip-rule="evenodd" d="M151.184 93.8467H205.063V103.263H151.184V93.8467ZM151.184 112.679H352.29V122.095H151.184V112.679ZM317.832 131.511H151.184V140.927H317.832V131.511ZM151.184 150.343H352.29V159.759H151.184V150.343ZM336.627 169.175H151.184V178.591H336.627V169.175ZM151.184 188.007H352.29V197.423H151.184V188.007ZM245.295 206.839H151.184V216.255H245.295V206.839Z" fill="#D0F6FF"/>
<path fill-rule="evenodd" clip-rule="evenodd" d="M271.178 185.403L275.977 192.776C274.663 195.077 273.628 197.559 272.916 200.174L264.322 201.987C263.742 202.11 263.327 202.622 263.327 203.216V213.915C263.327 214.509 263.742 215.021 264.322 215.143L272.916 216.956C273.628 219.572 274.663 222.053 275.977 224.355L271.178 231.728C270.854 232.225 270.923 232.882 271.342 233.302L278.892 240.867C279.311 241.287 279.966 241.355 280.463 241.031L287.822 236.222C290.118 237.539 292.595 238.576 295.205 239.289L297.015 247.9C297.137 248.481 297.648 248.897 298.241 248.897H308.919C309.511 248.897 310.023 248.481 310.145 247.9L311.954 239.289C314.565 238.576 317.041 237.539 319.338 236.222L326.697 241.031C327.193 241.355 327.848 241.287 328.267 240.867L336.537 232.581L331.182 224.355C332.496 222.053 333.532 219.572 334.243 216.956L342.837 215.143C343.417 215.021 343.832 214.509 343.832 213.915V203.216C343.832 202.622 343.417 202.11 342.837 201.987L334.243 200.174C333.532 197.559 332.496 195.077 331.182 192.776L335.981 185.403C336.305 184.905 336.237 184.249 335.818 183.829L328.267 176.264C327.848 175.844 327.193 175.776 326.697 176.1L319.338 180.909C317.041 179.592 314.565 178.554 311.954 177.842L310.145 169.23C310.023 168.649 309.511 168.233 308.919 168.233H298.241C297.648 168.233 297.137 168.649 297.015 169.23L295.205 177.842C292.595 178.554 290.118 179.592 287.822 180.909L280.463 176.1C279.966 175.776 279.311 175.844 278.892 176.264L271.342 183.829C270.923 184.249 270.854 184.905 271.178 185.403ZM318.459 208.565C318.459 216.799 311.797 223.474 303.58 223.474C295.362 223.474 288.7 216.799 288.7 208.565C288.7 200.331 295.362 193.657 303.58 193.657C311.797 193.657 318.459 200.331 318.459 208.565Z" fill="url(#paint8_linear_751_49659)"/>
<path d="M90.7264 46.1387H356.049C359.509 46.1387 362.314 48.9491 362.314 52.416V72.1591H84.4614L84.4614 52.416C84.4614 48.9491 87.2664 46.1387 90.7264 46.1387Z" fill="url(#paint9_linear_751_49659)"/>
<path d="M79.2991 139.123H176.707C179.046 139.123 180.942 141.032 180.942 143.387V205.929C180.942 208.284 179.046 210.193 176.707 210.193H79.2991C76.9601 210.193 75.064 208.284 75.064 205.929V143.387C75.064 141.032 76.9601 139.123 79.2991 139.123Z" fill="url(#paint10_linear_751_49659)"/>
<path d="M128.003 171.815L176.707 210.193H79.2993L128.003 171.815Z" fill="url(#paint11_linear_751_49659)"/>
<path d="M79.2993 139.123L176.707 139.123L128.003 182.152L79.2993 139.123Z" fill="#52D7FD"/>
<path d="M75.0642 151.57V158.541L59.386 150.43L50.9438 128.827L64.0482 125.309L69.5647 147.286L75.0642 151.57Z" fill="#221E41"/>
<path d="M62.1031 124.977L54.272 118.847L56.6132 115.844C56.9646 111.683 59.4284 107.451 64.0046 103.148C68.5808 98.845 73.4631 100.561 78.6514 108.296C76.6382 111.271 75.986 113.634 76.6947 115.386C77.7579 118.014 76.4027 118.629 75.4727 118.424C74.5427 118.218 73.6729 118.426 72.5982 120.223C71.5235 122.021 70.273 121.564 68.2143 120.995C66.8418 120.615 64.8047 121.943 62.1031 124.977Z" fill="#F4B696"/>
<path d="M53.8654 234.876L60.6238 235.35L60.1515 242.117L53.3931 241.644L53.8654 234.876Z" fill="#F4B696"/>
<path d="M53.1666 241.12L60.2652 241.617L64.6569 243.436C66.8667 244.399 68.7522 244.861 68.5765 247.38C68.5313 248.027 68.0668 248.522 67.5389 248.485L54.2249 247.552C53.3966 247.494 52.772 246.774 52.8299 245.944L53.1666 241.12Z" fill="url(#paint12_linear_751_49659)"/>
<path d="M7.01888 233.044L12.4999 237.034L8.5201 242.523L3.03906 238.532L7.01888 233.044Z" fill="#F4B696"/>
<path d="M3.12405 237.968L8.88099 242.159L11.6434 246.033C13.0081 248.023 14.3629 249.416 12.8816 251.459C12.501 251.984 11.8455 252.156 11.4175 251.845L0.619912 243.984C-0.0519073 243.495 -0.200837 242.553 0.287268 241.88L3.12405 237.968Z" fill="url(#paint13_linear_751_49659)"/>
<path d="M56.5569 115.698C55.9663 114.976 55.8048 114.252 56.0724 113.525C56.4738 112.435 57.3148 112.308 56.544 109.142C55.7732 105.977 55.7649 102.377 59.7087 98.4048C63.6524 94.4323 66.6817 95.6765 69.6209 97.0592C72.5602 98.4419 73.5086 99.4275 78.086 100.395C82.6635 101.363 83.1528 104.995 80.1008 108.339C77.0488 111.683 71.3457 108.187 70.4116 107.455C69.4775 106.724 69.0965 108.545 68.2899 110.176C67.4833 111.808 66.2834 111.565 66.0451 111.13C65.8069 110.695 65.1778 109.983 63.9677 110.437C62.7577 110.891 62.6519 112.672 63.1651 113.073C63.6782 113.475 64.5145 113.745 64.1718 114.396C63.8291 115.048 62.3574 116.811 61.1054 117.465C60.2707 117.902 58.7545 117.313 56.5569 115.698Z" fill="url(#paint14_linear_751_49659)"/>
<path d="M43.2429 187.735L36.0518 211.822C35.7704 212.765 35.2838 213.633 34.6272 214.365L11.1633 240.506L4.42188 235.987L22.4941 204.919V171.209L41.9899 174.427L43.2429 187.735Z" fill="#241F4A"/>
<path d="M22.3525 171.209L48.5367 173.532L67.6744 193.388C69.1825 194.953 69.832 197.157 69.414 199.292L61.5939 239.223L52.6798 238.658L54.3352 202.013L31.6667 192.636C26.0299 190.304 22.3525 184.797 22.3525 178.687V171.209Z" fill="url(#paint15_linear_751_49659)"/>
<path d="M22.3525 171.209C32.0029 147.11 37.6002 132.817 39.1443 128.331C41.4605 121.601 49.5159 115.23 58.7479 119.428C67.9798 123.625 66.2172 136.691 62.6977 146.671C60.3514 153.324 55.8257 162.587 49.1208 174.459L22.3525 171.209Z" fill="#00ADFF"/>
<path d="M52.68 168.051L45.103 138.211L53.4497 135.481L57.4124 158.99L52.68 168.051Z" fill="#221E41"/>
<path d="M60.2508 136.171L63.798 155.648L85.9282 173.854L89.8818 175.563L86.9049 176.362L88.6498 182.888C85.0987 183.166 82.6559 182.487 81.3213 180.852C79.9867 179.217 78.8883 176.566 78.0259 172.9L53.6193 158.793L47.1465 139.689L60.2508 136.171Z" fill="#F4B696"/>
<path d="M60.916 131.604L63.4145 147.416L50.1393 151.808L43.6411 135.477" fill="#00ADFF"/>
<path fill-rule="evenodd" clip-rule="evenodd" d="M32.8497 176.643L32.564 176.771L33.4631 178.775L33.7488 178.646L32.8497 176.643ZM35.0332 181.509L34.7475 181.638L35.2731 182.809C35.401 183.094 35.5494 183.369 35.7169 183.632L35.9809 183.464C35.8216 183.213 35.6805 182.952 35.5588 182.68L35.0332 181.509ZM38.0487 185.816L38.2018 185.543L40.1147 186.616L39.9616 186.89L38.0487 185.816ZM42.8476 188.151L42.6945 188.424L44.6074 189.498L44.7605 189.224L42.8476 188.151ZM47.3403 191.032L47.4934 190.758L49.4064 191.832L49.2532 192.106L47.3403 191.032ZM52.1392 193.366L51.9861 193.64L53.8991 194.714L54.0522 194.44L52.1392 193.366ZM56.6319 196.248L56.785 195.974L58.698 197.048L58.5449 197.322L56.6319 196.248ZM61.0454 199.2L60.7834 199.372C61.1765 199.974 61.4613 200.641 61.6238 201.342L61.929 201.271C61.7581 200.534 61.4587 199.833 61.0454 199.2ZM61.6223 204.413L61.9333 204.451L61.6693 206.632L61.3583 206.594L61.6223 204.413ZM61.2922 209.748L60.9812 209.71L60.7172 211.891L61.0282 211.929L61.2922 209.748ZM60.3401 215.007L60.6511 215.045L60.3871 217.226L60.0762 217.188L60.3401 215.007ZM60.01 220.342L59.6991 220.304L59.4351 222.485L59.7461 222.523L60.01 220.342ZM59.058 225.601L59.369 225.639L59.105 227.82L58.794 227.782L59.058 225.601ZM58.7279 230.936L58.4169 230.898L58.1529 233.079L58.4639 233.117L58.7279 230.936Z" fill="#A587FF"/>
<path d="M243.279 12.9512H360.434C361.818 12.9512 362.94 14.0754 362.94 15.4621V115.272C362.94 116.659 361.818 117.783 360.434 117.783H243.279C241.895 117.783 240.773 116.659 240.773 115.272V15.4621C240.773 14.0754 241.895 12.9512 243.279 12.9512Z" fill="url(#paint16_linear_751_49659)"/>
<path fill-rule="evenodd" clip-rule="evenodd" d="M250.17 41.8271H265.833V57.5205H250.17V41.8271ZM250.17 66.9365H265.833V82.6299H250.17V66.9365ZM294.965 41.8271H279.303V57.5205H294.965V41.8271ZM279.303 66.9365H294.965V82.6299H279.303V66.9365ZM324.411 41.8271H308.748V57.5205H324.411V41.8271ZM337.88 41.8271H353.543V57.5205H337.88V41.8271ZM353.543 66.9365H337.88V82.6299H353.543V66.9365ZM250.17 92.0459H265.833V107.739H250.17V92.0459ZM294.965 92.0459H279.303V107.739H294.965V92.0459ZM308.748 92.0459H324.411V107.739H308.748V92.0459ZM353.543 92.0459H337.88V107.739H353.543V92.0459Z" fill="#77D0E6"/>
<path d="M308.748 66.9365H324.411V82.6299H308.748V66.9365Z" fill="url(#paint17_linear_751_49659)"/>
<path d="M243.279 12.9512H360.434C361.818 12.9512 362.94 14.0754 362.94 15.4621V32.5131H240.773V15.4621C240.773 14.0754 241.895 12.9512 243.279 12.9512Z" fill="url(#paint18_linear_751_49659)"/>
<path d="M391.871 243.988C392.58 242.728 393.303 241.657 394.041 240.777C395.149 239.455 395.541 239.928 395.888 240.53C396.235 241.133 397.015 242.485 397.644 243.577C398.273 244.67 398.005 244.986 396.007 245.966C394.01 246.947 393.673 246.905 391.835 248.38C389.998 249.855 385.895 252.15 384.191 251.245C382.486 250.339 385.013 248.101 387.319 246.314C388.856 245.123 390.373 244.348 391.871 243.988Z" fill="url(#paint19_linear_751_49659)"/>
<path d="M392.751 235.087L396.121 240.935L395.14 242.163C393.357 244.396 390.741 245.802 387.898 246.054L390.61 243.593L387.47 238.142L392.751 235.087Z" fill="#F4B696"/>
<path d="M387.605 241.429L365.105 206.064L371.17 163.211L379.418 205.301L395.87 237.337L387.605 241.429Z" fill="#241F4A"/>
<path d="M361.808 246.748C363.051 246.012 364.212 245.448 365.29 245.055C366.909 244.465 367.013 245.071 367.013 245.767C367.013 246.462 367.013 248.024 367.013 249.285C367.013 250.547 366.622 250.686 364.403 250.534C362.185 250.382 361.913 250.177 359.586 250.534C357.258 250.891 352.56 250.823 351.536 249.185C350.511 247.547 353.816 246.875 356.705 246.483C358.631 246.221 360.332 246.31 361.808 246.748Z" fill="url(#paint20_linear_751_49659)"/>
<path d="M367.013 239.48V246.233L365.55 246.805C362.892 247.846 359.925 247.753 357.337 246.546L360.914 245.774V239.48H367.013Z" fill="#F4B696"/>
<path d="M318.989 85.3817L316.262 82.333C316.722 80.0798 316.211 78.4182 314.728 77.3484L313.93 78.9531C312.477 77.8833 311.245 76.6853 310.233 75.3591C308.716 73.3697 305.675 77.7968 306.556 81.0305C307.436 84.2642 310.758 85.0584 312.64 86.8854C312.941 87.1776 314.013 88.1273 315.856 89.7346L318.989 85.3817Z" fill="#F4B696"/>
<path d="M361.275 99.6042L360.121 92.5911C356.652 93.1154 354.744 92.077 354.399 89.476C354.054 86.875 353.863 85.3141 353.827 84.7935L351.907 84.1718L354.399 80.9541L355.73 74.7468C358.907 73.5734 362.385 74.7778 366.164 78.3601C371.834 83.7335 369.001 95.8964 368.249 98.8107C367.747 100.753 365.423 101.018 361.275 99.6042Z" fill="#F4B696"/>
<path d="M368.892 243.449H358.288L344.774 151.669L372.298 151.534C372.946 156.571 372.84 161.676 371.983 166.681L365.645 203.725L368.892 243.449Z" fill="url(#paint21_linear_751_49659)"/>
<path d="M344.774 151.668L349.185 117.229C347.172 113.541 346.668 109.471 347.675 105.02C348.474 102.452 350.167 101.167 352.753 101.167C356.632 101.167 367.558 95.1562 369.928 95.1562C373.05 96.2985 374.337 100.555 373.789 107.927C373.241 115.298 372.759 129.907 372.343 151.755L344.774 151.668Z" fill="url(#paint22_linear_751_49659)"/>
<path d="M361.425 110.149L347.749 113.606C347.297 112.155 347.072 110.381 347.072 108.284C347.072 106.186 351.856 106.808 361.425 110.149Z" fill="#211D41"/>
<path d="M365.121 110.45L335.353 108.858C333.935 108.783 332.598 108.173 331.608 107.153L312.92 87.8684L318.332 83.8486L334.938 97.7933C357.55 96.076 369.06 95.2173 369.468 95.2173C369.876 95.2173 369.876 96.076 369.468 97.7933L365.121 110.45Z" fill="url(#paint23_linear_751_49659)"/>
<path d="M353.023 73.9825C351.473 76.6328 353.546 79.0115 359.241 81.1186C367.784 84.2793 360.122 86.1922 363.854 91.4345C367.585 96.6768 358.947 104.807 365.645 112.275C370.111 117.254 372.306 120.235 372.23 121.219C375.751 119.672 377.798 116.407 378.371 111.423C379.229 103.947 371.863 96.3396 372.897 89.6156C373.932 82.8917 374.428 76.4805 366.386 72.3987C361.025 69.6775 356.571 70.2055 353.023 73.9825Z" fill="url(#paint24_linear_751_49659)"/>
<path fill-rule="evenodd" clip-rule="evenodd" d="M358.847 160.162L359.16 160.165L359.184 157.968L358.871 157.965L358.847 160.162ZM359.1 165.501L358.787 165.497L358.811 163.3L359.125 163.304L359.1 165.501ZM358.727 170.833L359.04 170.836L359.065 168.639L358.752 168.636L358.727 170.833ZM358.98 176.172L358.667 176.168L358.692 173.971L359.005 173.975L358.98 176.172ZM358.607 181.503L358.92 181.507L358.945 179.31L358.632 179.306L358.607 181.503ZM358.861 186.842L358.547 186.839L358.572 184.642L358.885 184.645L358.861 186.842ZM358.488 192.174L358.801 192.178L358.825 189.981L358.512 189.977L358.488 192.174ZM358.741 197.513L358.428 197.51L358.452 195.313L358.766 195.316L358.741 197.513ZM358.694 202.848L359.005 202.814L358.767 200.63L358.455 200.664L358.694 202.848ZM359.583 208.118L359.272 208.152L359.034 205.968L359.345 205.934L359.583 208.118ZM359.85 213.456L360.162 213.422L359.924 211.238L359.612 211.272L359.85 213.456ZM360.74 218.726L360.429 218.76L360.191 216.576L360.502 216.542L360.74 218.726ZM361.007 224.065L361.319 224.031L361.08 221.846L360.769 221.881L361.007 224.065ZM361.897 229.335L361.586 229.369L361.347 227.185L361.659 227.151L361.897 229.335ZM362.164 234.673L362.475 234.639L362.237 232.455L361.926 232.489L362.164 234.673ZM362.742 239.977L363.054 239.943L362.816 237.759L362.504 237.793L362.742 239.977Z" fill="#A587FF"/>
<defs>
<linearGradient id="paint0_linear_751_49659" x1="61.5519" y1="32.2267" x2="61.5519" y2="98.5708" gradientUnits="userSpaceOnUse">
<stop stop-color="#D0F6FF"/>
<stop offset="1" stop-color="#8BE2F7"/>
</linearGradient>
<linearGradient id="paint1_linear_751_49659" x1="-58.3373" y1="229.372" x2="-58.3373" y2="259.159" gradientUnits="userSpaceOnUse">
<stop stop-color="#D0F6FF"/>
<stop offset="1" stop-color="#8BE2F7"/>
</linearGradient>
<linearGradient id="paint2_linear_751_49659" x1="204.123" y1="12.8682" x2="204.123" y2="43.3095" gradientUnits="userSpaceOnUse">
<stop stop-color="#FF9485"/>
<stop offset="1" stop-color="#FF676E"/>
</linearGradient>
<linearGradient id="paint3_linear_751_49659" x1="16.7713" y1="52.5715" x2="64.4644" y2="91.6946" gradientUnits="userSpaceOnUse">
<stop stop-color="#6EAE7C"/>
<stop offset="1" stop-color="#0F575D"/>
</linearGradient>
<linearGradient id="paint4_linear_751_49659" x1="55.4035" y1="25.7093" x2="80.8496" y2="36.9237" gradientUnits="userSpaceOnUse">
<stop stop-color="#CFE49F"/>
<stop offset="1" stop-color="#A9D386"/>
</linearGradient>
<linearGradient id="paint5_linear_751_49659" x1="43.6707" y1="61.2686" x2="52.6283" y2="87.3114" gradientUnits="userSpaceOnUse">
<stop stop-color="#77D791"/>
<stop offset="1" stop-color="#4FA67E"/>
</linearGradient>
<linearGradient id="paint6_linear_751_49659" x1="345.8" y1="278.262" x2="347.184" y2="99.5956" gradientUnits="userSpaceOnUse">
<stop stop-color="#2B3389"/>
<stop offset="1" stop-color="#444FB7"/>
</linearGradient>
<linearGradient id="paint7_linear_751_49659" x1="99.8932" y1="120.839" x2="156.705" y2="142.462" gradientUnits="userSpaceOnUse">
<stop stop-color="#0F1752"/>
<stop offset="1" stop-color="#272884"/>
</linearGradient>
<linearGradient id="paint8_linear_751_49659" x1="263.327" y1="168.233" x2="263.327" y2="248.897" gradientUnits="userSpaceOnUse">
<stop stop-color="#FF9485"/>
<stop offset="1" stop-color="#FF676E"/>
</linearGradient>
<linearGradient id="paint9_linear_751_49659" x1="99.2323" y1="52.6438" x2="100.828" y2="83.093" gradientUnits="userSpaceOnUse">
<stop stop-color="#0F1752"/>
<stop offset="1" stop-color="#272884"/>
</linearGradient>
<linearGradient id="paint10_linear_751_49659" x1="75.064" y1="139.123" x2="75.064" y2="210.193" gradientUnits="userSpaceOnUse">
<stop stop-color="#4DBCFA"/>
<stop offset="1" stop-color="#1486DB"/>
</linearGradient>
<linearGradient id="paint11_linear_751_49659" x1="94.0957" y1="171.815" x2="94.0957" y2="198.534" gradientUnits="userSpaceOnUse">
<stop stop-color="#4DBCFA"/>
<stop offset="1" stop-color="#1486DB"/>
</linearGradient>
<linearGradient id="paint12_linear_751_49659" x1="52.8262" y1="241.12" x2="52.8262" y2="248.487" gradientUnits="userSpaceOnUse">
<stop stop-color="#1D2A78"/>
<stop offset="1" stop-color="#12033B"/>
</linearGradient>
<linearGradient id="paint13_linear_751_49659" x1="0" y1="237.968" x2="0" y2="252" gradientUnits="userSpaceOnUse">
<stop stop-color="#1D2A78"/>
<stop offset="1" stop-color="#12033B"/>
</linearGradient>
<linearGradient id="paint14_linear_751_49659" x1="55.9473" y1="95.7236" x2="55.9473" y2="117.605" gradientUnits="userSpaceOnUse">
<stop stop-color="#1D2A78"/>
<stop offset="1" stop-color="#12033B"/>
</linearGradient>
<linearGradient id="paint15_linear_751_49659" x1="4.7846" y1="135.194" x2="4.7846" y2="298.168" gradientUnits="userSpaceOnUse">
<stop stop-color="#1533B6"/>
<stop offset="1" stop-color="#356BE9"/>
</linearGradient>
<linearGradient id="paint16_linear_751_49659" x1="214.022" y1="20.5666" x2="214.022" y2="171.308" gradientUnits="userSpaceOnUse">
<stop stop-color="#D0F6FF"/>
<stop offset="1" stop-color="#8BE2F7"/>
</linearGradient>
<linearGradient id="paint17_linear_751_49659" x1="308.748" y1="66.9365" x2="308.748" y2="82.6299" gradientUnits="userSpaceOnUse">
<stop stop-color="#FF9485"/>
<stop offset="1" stop-color="#FF676E"/>
</linearGradient>
<linearGradient id="paint18_linear_751_49659" x1="240.773" y1="12.9512" x2="240.773" y2="32.5131" gradientUnits="userSpaceOnUse">
<stop stop-color="#FF9485"/>
<stop offset="1" stop-color="#FF676E"/>
</linearGradient>
<linearGradient id="paint19_linear_751_49659" x1="383.632" y1="239.93" x2="383.632" y2="251.45" gradientUnits="userSpaceOnUse">
<stop stop-color="#1D2A78"/>
<stop offset="1" stop-color="#12033B"/>
</linearGradient>
<linearGradient id="paint20_linear_751_49659" x1="351.345" y1="244.816" x2="351.345" y2="250.71" gradientUnits="userSpaceOnUse">
<stop stop-color="#1D2A78"/>
<stop offset="1" stop-color="#12033B"/>
</linearGradient>
<linearGradient id="paint21_linear_751_49659" x1="334.371" y1="102.864" x2="334.371" y2="323.106" gradientUnits="userSpaceOnUse">
<stop stop-color="#1533B6"/>
<stop offset="1" stop-color="#356BE9"/>
</linearGradient>
<linearGradient id="paint22_linear_751_49659" x1="344.774" y1="95.1562" x2="344.774" y2="151.755" gradientUnits="userSpaceOnUse">
<stop stop-color="#FF9485"/>
<stop offset="1" stop-color="#FF676E"/>
</linearGradient>
<linearGradient id="paint23_linear_751_49659" x1="312.92" y1="83.8486" x2="312.92" y2="110.45" gradientUnits="userSpaceOnUse">
<stop stop-color="#FF9485"/>
<stop offset="1" stop-color="#FF676E"/>
</linearGradient>
<linearGradient id="paint24_linear_751_49659" x1="352.526" y1="70.6895" x2="352.526" y2="121.219" gradientUnits="userSpaceOnUse">
<stop stop-color="#1D2A78"/>
<stop offset="1" stop-color="#12033B"/>
</linearGradient>
</defs>
</svg>
