<svg width="25" height="24" viewBox="0 0 25 24" fill="none" xmlns="http://www.w3.org/2000/svg">
  <path fill-rule="evenodd" clip-rule="evenodd"
    d="M18 15C17.5478 15 16.9089 15.0625 16.2438 15.1536C15.9331 15.1962 15.6962 15.4331 15.6536 15.7438C15.5625 16.4089 15.5 17.0478 15.5 17.5C15.5 17.9522 15.5625 18.5911 15.6536 19.2562C15.6962 19.5669 15.9331 19.8038 16.2438 19.8464C16.9089 19.9375 17.5478 20 18 20C18.4522 20 19.0911 19.9375 19.7562 19.8464C20.0669 19.8038 20.3038 19.5669 20.3464 19.2562C20.4375 18.5911 20.5 17.9522 20.5 17.5C20.5 17.0478 20.4375 16.4089 20.3464 15.7438C20.3038 15.4331 20.0669 15.1962 19.7562 15.1536C19.0911 15.0625 18.4522 15 18 15ZM15.9724 13.1721C14.7725 13.3364 13.8364 14.2725 13.6721 15.4724C13.5778 16.1606 13.5 16.9082 13.5 17.5C13.5 18.0918 13.5778 18.8394 13.6721 19.5276C13.8364 20.7275 14.7725 21.6636 15.9724 21.8279C16.6606 21.9222 17.4082 22 18 22C18.5918 22 19.3394 21.9222 20.0276 21.8279C21.2275 21.6636 22.1636 20.7275 22.3279 19.5276C22.4222 18.8394 22.5 18.0918 22.5 17.5C22.5 16.9082 22.4222 16.1606 22.3279 15.4724C22.1636 14.2725 21.2275 13.3364 20.0276 13.1721C19.3394 13.0778 18.5918 13 18 13C17.4082 13 16.6606 13.0778 15.9724 13.1721Z"
    fill="#403ECC" />
  <path fill-rule="evenodd" clip-rule="evenodd"
    d="M7 15C6.54782 15 5.90893 15.0625 5.24381 15.1536C4.93308 15.1962 4.69615 15.4331 4.65359 15.7438C4.5625 16.4089 4.5 17.0478 4.5 17.5C4.5 17.9522 4.5625 18.5911 4.65359 19.2562C4.69615 19.5669 4.93308 19.8038 5.24381 19.8464C5.90893 19.9375 6.54782 20 7 20C7.45218 20 8.09107 19.9375 8.75619 19.8464C9.06692 19.8038 9.30385 19.5669 9.34641 19.2562C9.4375 18.5911 9.5 17.9522 9.5 17.5C9.5 17.0478 9.4375 16.4089 9.34641 15.7438C9.30385 15.4331 9.06692 15.1962 8.75619 15.1536C8.09107 15.0625 7.45218 15 7 15ZM4.97244 13.1721C3.77253 13.3364 2.83642 14.2725 2.67209 15.4724C2.57784 16.1606 2.5 16.9082 2.5 17.5C2.5 18.0918 2.57784 18.8394 2.67209 19.5276C2.83642 20.7275 3.77253 21.6636 4.97244 21.8279C5.66065 21.9222 6.40816 22 7 22C7.59184 22 8.33935 21.9222 9.02756 21.8279C10.2275 21.6636 11.1636 20.7275 11.3279 19.5276C11.4222 18.8394 11.5 18.0918 11.5 17.5C11.5 16.9082 11.4222 16.1606 11.3279 15.4724C11.1636 14.2725 10.2275 13.3364 9.02756 13.1721C8.33935 13.0778 7.59184 13 7 13C6.40816 13 5.66065 13.0778 4.97244 13.1721Z"
    fill="#403ECC" />
  <path fill-rule="evenodd" clip-rule="evenodd"
    d="M18 4C17.5478 4 16.9089 4.0625 16.2438 4.15359C15.9331 4.19615 15.6962 4.43308 15.6536 4.74381C15.5625 5.40893 15.5 6.04782 15.5 6.5C15.5 6.95218 15.5625 7.59107 15.6536 8.25619C15.6962 8.56692 15.9331 8.80385 16.2438 8.84641C16.9089 8.9375 17.5478 9 18 9C18.4522 9 19.0911 8.9375 19.7562 8.84641C20.0669 8.80385 20.3038 8.56692 20.3464 8.25619C20.4375 7.59107 20.5 6.95218 20.5 6.5C20.5 6.04782 20.4375 5.40893 20.3464 4.74381C20.3038 4.43308 20.0669 4.19615 19.7562 4.15359C19.0911 4.0625 18.4522 4 18 4ZM15.9724 2.17209C14.7725 2.33642 13.8364 3.27253 13.6721 4.47244C13.5778 5.16065 13.5 5.90816 13.5 6.5C13.5 7.09184 13.5778 7.83935 13.6721 8.52756C13.8364 9.72747 14.7725 10.6636 15.9724 10.8279C16.6606 10.9222 17.4082 11 18 11C18.5918 11 19.3394 10.9222 20.0276 10.8279C21.2275 10.6636 22.1636 9.72747 22.3279 8.52756C22.4222 7.83935 22.5 7.09184 22.5 6.5C22.5 5.90816 22.4222 5.16065 22.3279 4.47244C22.1636 3.27253 21.2275 2.33642 20.0276 2.17209C19.3394 2.07784 18.5918 2 18 2C17.4082 2 16.6606 2.07784 15.9724 2.17209Z"
    fill="#403ECC" />
  <path fill-rule="evenodd" clip-rule="evenodd"
    d="M7 4C6.54782 4 5.90893 4.0625 5.24381 4.15359C4.93308 4.19615 4.69615 4.43308 4.65359 4.74381C4.5625 5.40893 4.5 6.04782 4.5 6.5C4.5 6.95218 4.5625 7.59107 4.65359 8.25619C4.69615 8.56692 4.93308 8.80385 5.24381 8.84641C5.90893 8.9375 6.54782 9 7 9C7.45218 9 8.09107 8.9375 8.75619 8.84641C9.06692 8.80385 9.30385 8.56692 9.34641 8.25619C9.4375 7.59107 9.5 6.95218 9.5 6.5C9.5 6.04782 9.4375 5.40893 9.34641 4.74381C9.30385 4.43308 9.06692 4.19615 8.75619 4.15359C8.09107 4.0625 7.45218 4 7 4ZM4.97244 2.17209C3.77253 2.33642 2.83642 3.27253 2.67209 4.47244C2.57784 5.16065 2.5 5.90816 2.5 6.5C2.5 7.09184 2.57784 7.83935 2.67209 8.52756C2.83642 9.72747 3.77253 10.6636 4.97244 10.8279C5.66065 10.9222 6.40816 11 7 11C7.59184 11 8.33935 10.9222 9.02756 10.8279C10.2275 10.6636 11.1636 9.72747 11.3279 8.52756C11.4222 7.83935 11.5 7.09184 11.5 6.5C11.5 5.90816 11.4222 5.16065 11.3279 4.47244C11.1636 3.27253 10.2275 2.33642 9.02756 2.17209C8.33935 2.07784 7.59184 2 7 2C6.40816 2 5.66065 2.07784 4.97244 2.17209Z"
    fill="#403ECC" />
</svg>