<svg width="25" height="24" viewBox="0 0 25 24" fill="none" xmlns="http://www.w3.org/2000/svg">
  <path fill-rule="evenodd" clip-rule="evenodd"
    d="M12.5 7C10.8431 7 9.5 5.65685 9.5 4C9.5 2.34315 10.8431 1 12.5 1C14.1569 1 15.5 2.34315 15.5 4C15.5 5.65685 14.1569 7 12.5 7ZM12.5 5C13.0523 5 13.5 4.55228 13.5 4C13.5 3.44772 13.0523 3 12.5 3C11.9477 3 11.5 3.44772 11.5 4C11.5 4.55228 11.9477 5 12.5 5ZM11.5 7H13.5C15.1569 7 16.5 8.34315 16.5 10V11C16.5 12.6569 15.1569 14 13.5 14H11.5C9.84315 14 8.5 12.6569 8.5 11V10C8.5 8.34315 9.84315 7 11.5 7ZM11.5 9C10.9477 9 10.5 9.44771 10.5 10V11C10.5 11.5523 10.9477 12 11.5 12H13.5C14.0523 12 14.5 11.5523 14.5 11V10C14.5 9.44771 14.0523 9 13.5 9H11.5ZM19.5 16C17.8431 16 16.5 14.6569 16.5 13C16.5 11.3431 17.8431 10 19.5 10C21.1569 10 22.5 11.3431 22.5 13C22.5 14.6569 21.1569 16 19.5 16ZM19.5 14C20.0523 14 20.5 13.5523 20.5 13C20.5 12.4477 20.0523 12 19.5 12C18.9477 12 18.5 12.4477 18.5 13C18.5 13.5523 18.9477 14 19.5 14ZM18.5 16H20.5C22.1569 16 23.5 17.3431 23.5 19V20C23.5 21.6569 22.1569 23 20.5 23H18.5C16.8431 23 15.5 21.6569 15.5 20V19C15.5 17.3431 16.8431 16 18.5 16ZM18.5 18C17.9477 18 17.5 18.4477 17.5 19V20C17.5 20.5523 17.9477 21 18.5 21H20.5C21.0523 21 21.5 20.5523 21.5 20V19C21.5 18.4477 21.0523 18 20.5 18H18.5ZM5.5 16C3.84315 16 2.5 14.6569 2.5 13C2.5 11.3431 3.84315 10 5.5 10C7.15685 10 8.5 11.3431 8.5 13C8.5 14.6569 7.15685 16 5.5 16ZM5.5 14C6.05228 14 6.5 13.5523 6.5 13C6.5 12.4477 6.05228 12 5.5 12C4.94772 12 4.5 12.4477 4.5 13C4.5 13.5523 4.94772 14 5.5 14ZM4.5 16H6.5C8.15685 16 9.5 17.3431 9.5 19V20C9.5 21.6569 8.15685 23 6.5 23H4.5C2.84315 23 1.5 21.6569 1.5 20V19C1.5 17.3431 2.84315 16 4.5 16ZM4.5 18C3.94772 18 3.5 18.4477 3.5 19V20C3.5 20.5523 3.94772 21 4.5 21H6.5C7.05228 21 7.5 20.5523 7.5 20V19C7.5 18.4477 7.05228 18 6.5 18H4.5Z"
    fill="#403ECC" />
</svg>