<svg width="25" height="24" viewBox="0 0 25 24" fill="none" xmlns="http://www.w3.org/2000/svg">
  <path fill-rule="evenodd" clip-rule="evenodd"
    d="M18.8062 3.00009C19.3535 3.00009 19.7972 3.43893 19.7972 3.98026V5.6745C21.298 5.72151 22.5 6.93961 22.5 8.43539V20.0192C22.5 20.665 21.8795 21.1344 21.2493 20.9651C20.8273 20.8518 20.197 20.6679 19.3254 20.4064L19.2333 20.3788C18.878 20.272 17.6934 19.9138 17.7933 19.944C17.3198 19.8011 17.0648 19.7256 16.9651 19.6993C15.6494 19.3518 14.4449 19.2181 12.5187 19.2172C12.5062 19.2175 12.4937 19.2175 12.4812 19.2172C10.5551 19.2181 9.3506 19.3518 8.03489 19.6993C7.93523 19.7256 7.68019 19.8011 7.20673 19.944C7.30659 19.9138 6.12204 20.272 5.76673 20.3788L5.67463 20.4064C4.80305 20.6679 4.17267 20.8518 3.75069 20.9651C3.12053 21.1344 2.5 20.665 2.5 20.0192V8.43539C2.5 6.93965 3.70195 5.72158 5.20264 5.67451V3.98026C5.20264 3.43893 5.64632 3.00009 6.19363 3.00009C8.5627 3.00009 10.6718 3.53521 12.5031 4.60587C14.3524 3.53551 16.4593 3.00009 18.8062 3.00009ZM7.18462 6.68487C7.18496 6.67438 7.18512 6.66384 7.18512 6.65326C7.18512 6.64269 7.18496 6.63215 7.18462 6.62166V4.99767C8.80144 5.12186 10.2393 5.5566 11.5089 6.3019V16.5684C10.188 15.9652 8.74463 15.6115 7.18462 15.5075V6.68487ZM5.20264 7.63833C4.79727 7.68269 4.48198 8.02262 4.48198 8.43539V18.7145C4.68342 18.6548 4.90295 18.5893 5.14296 18.5172L5.22789 18.4917C5.48675 18.4139 6.17997 18.2045 6.49579 18.109L6.6542 18.0612C7.13871 17.9151 7.39982 17.838 7.52365 17.8053C7.78974 17.735 8.05203 17.6724 8.3153 17.6169C7.64101 17.4958 6.93408 17.4353 6.19363 17.4353C5.64632 17.4353 5.20264 16.9965 5.20264 16.4551V7.63833ZM16.6902 17.6181C16.9516 17.6733 17.2121 17.7355 17.4764 17.8053C17.6002 17.838 17.8613 17.9151 18.3458 18.0612L18.5043 18.109C18.8201 18.2045 19.5133 18.4139 19.7721 18.4917L19.857 18.5172C20.097 18.5893 20.3166 18.6548 20.518 18.7145V8.43539C20.518 8.02258 20.2027 7.68262 19.7972 7.63832V16.4551C19.7972 16.9965 19.3535 17.4353 18.8062 17.4353C18.0696 17.4353 17.3645 17.4962 16.6902 17.6181ZM17.8152 15.5079C16.2617 15.6128 14.8184 15.9679 13.4909 16.573V6.30545C14.7756 5.55925 16.2135 5.12377 17.8152 4.99842V15.5079ZM21.4189 20.0192C21.4189 19.9605 21.4753 19.9178 21.5326 19.9332C21.4964 19.9235 21.4585 19.9132 21.4189 19.9023V20.0192ZM3.58108 20.0192C3.58108 19.9651 3.53315 19.9246 3.48078 19.9306L3.47187 19.932L3.58108 19.9023V20.0192Z"
    fill="#403ECC" />
</svg>