<svg width="25" height="24" viewBox="0 0 25 24" fill="none" xmlns="http://www.w3.org/2000/svg">
  <path fill-rule="evenodd" clip-rule="evenodd"
    d="M17.5 4V3C17.5 2.44772 17.9477 2 18.5 2C19.0523 2 19.5 2.44772 19.5 3V4H20.5C22.1569 4 23.5 5.34315 23.5 7V10V12V17C23.5 20.3137 20.8137 23 17.5 23H7.5C4.18629 23 1.5 20.3137 1.5 17V12V10V7C1.5 5.34315 2.84315 4 4.5 4H6.5V3C6.5 2.44772 6.94772 2 7.5 2C8.05228 2 8.5 2.44772 8.5 3V4H17.5ZM3.5 10H21.5V7C21.5 6.44772 21.0523 6 20.5 6H19.5C19.5 6.55228 19.0523 7 18.5 7C17.9477 7 17.5 6.55228 17.5 6H8.5C8.5 6.55228 8.05228 7 7.5 7C6.94772 7 6.5 6.55228 6.5 6H4.5C3.94772 6 3.5 6.44772 3.5 7V10ZM3.5 12V17C3.5 19.2091 5.29086 21 7.5 21H17.5C19.7091 21 21.5 19.2091 21.5 17V12H3.5Z"
    fill="#403ECC" />
</svg>