<svg width="40" height="40" viewBox="0 0 40 40" fill="none" xmlns="http://www.w3.org/2000/svg">
<path d="M39.9925 27.3647C39.8112 27.6974 39.833 28.0789 39.7359 28.4326C38.7227 32.1279 36.2809 34.4206 32.6612 35.4443C30.1388 36.1575 27.6737 35.8385 25.3582 34.5693C25.2846 34.5208 25.1991 34.4936 25.1111 34.4907C25.023 34.4878 24.9359 34.5092 24.8592 34.5527C21.2931 36.2855 17.7621 36.2194 14.2752 34.3235C14.0936 34.2248 13.9909 34.2585 13.8377 34.3743C12.9278 35.0717 11.8573 35.5292 10.7244 35.7048C9.59154 35.8804 8.43271 35.7685 7.35439 35.3794C6.27606 34.9903 5.31283 34.3364 4.5532 33.4778C3.79357 32.6192 3.2619 31.5834 3.00706 30.4657C2.77351 29.4803 2.7982 28.4761 2.84831 27.4808C2.88926 26.8614 2.70458 26.2481 2.32841 25.7543C1.90268 25.1673 1.51736 24.5497 1.13434 23.9331C0.628837 23.1329 0.295655 22.2361 0.156046 21.2999C0.0164366 20.3637 0.0734675 19.4087 0.323498 18.4958C0.573529 17.5829 1.01107 16.7321 1.60822 15.9977C2.20537 15.2633 2.94903 14.6614 3.79174 14.2304C3.87905 14.1965 3.95252 14.1344 4.00048 14.0539C4.04844 13.9735 4.06813 13.8793 4.05643 13.7864C4.04455 12.9164 4.05028 12.046 4.05184 11.1758C4.05851 7.27594 6.86309 4.335 10.7622 4.19084C12.0568 4.14303 13.3597 4.08188 14.65 4.295C14.9209 4.32399 15.1864 4.39035 15.4391 4.49219C15.9272 4.72521 16.3781 4.67219 16.8831 4.52209C18.8285 3.94375 20.777 4.00792 22.706 4.62469C22.8995 4.69402 23.112 4.68754 23.3009 4.60657C24.0973 4.28599 24.9491 4.12568 25.8075 4.13479C27.1157 4.14875 28.4254 4.07042 29.7137 4.42886C33.8687 5.58511 36.4643 9.43063 35.9543 13.7101C35.9335 13.8872 35.896 14.033 36.1293 14.1527C38.2454 15.236 39.5121 16.9548 39.9142 19.3029C39.9233 19.3559 39.9298 19.4033 39.993 19.4147V20.1941C39.7574 20.5392 39.4874 20.8355 39.0138 20.7065C38.5467 20.5793 38.4591 20.2081 38.402 19.7778C38.1207 17.658 36.9921 16.1703 35.0039 15.3611C34.2803 15.0667 34.1468 14.8544 34.306 14.0936C35.079 10.4 32.8757 6.8675 29.222 5.91198C28.1209 5.62407 27.0049 5.71886 25.8917 5.69407C25.0714 5.67359 24.2581 5.85013 23.5201 6.20886C23.3821 6.27996 23.2305 6.32041 23.0755 6.32742C22.9204 6.33443 22.7657 6.30785 22.6219 6.24948C20.6647 5.49156 18.4939 5.49803 16.5412 6.26761C16.3987 6.32866 16.2444 6.35752 16.0895 6.35211C15.9345 6.34671 15.7826 6.30719 15.6447 6.23636C15.2735 6.05004 14.8769 5.91971 14.4676 5.84959C13.1899 5.63802 11.9004 5.69646 10.6203 5.76167C7.75632 5.9075 5.63007 8.17938 5.61268 11.0447C5.60612 12.1489 5.61195 13.2523 5.61132 14.356C5.61132 15.001 5.49674 15.1752 4.91528 15.4209C1.84518 16.7191 0.708095 20.3427 2.48872 23.1605C2.75882 23.5876 3.00153 24.04 3.32205 24.4261C4.20549 25.4886 4.56883 26.6728 4.40539 28.0564C4.31701 28.8069 4.37337 29.5675 4.57143 30.2969C4.80497 31.1787 5.26283 31.9851 5.90046 32.6375C6.53809 33.2899 7.33376 33.7661 8.21003 34.0198C9.0863 34.2735 10.0133 34.296 10.9009 34.0851C11.7884 33.8742 12.6062 33.4372 13.2748 32.8165C13.7539 32.3814 14.0143 32.3393 14.4808 32.629C17.8048 34.6915 21.1855 34.776 24.6172 32.9122C24.9723 32.7193 25.2887 32.7074 25.6363 32.9284C27.3697 34.0306 29.2688 34.4578 31.2899 34.1351C34.3482 33.6467 36.5889 32.0205 37.8668 29.1584C38.1918 28.4304 38.3234 27.6486 38.4212 26.8619C38.435 26.7115 38.4954 26.5693 38.594 26.4549C38.6926 26.3406 38.8244 26.2599 38.9711 26.2242C39.1081 26.1784 39.2557 26.1754 39.3945 26.2154C39.5332 26.2554 39.6566 26.3365 39.7482 26.4481C39.8389 26.5655 39.9207 26.6895 39.9928 26.8192L39.9925 27.3647Z" fill="#696974"/>
<path d="M39.9921 23.7021C39.8034 23.9852 39.5998 24.2456 39.2119 24.2437C39.0361 24.2393 38.8665 24.1774 38.7292 24.0675C38.5918 23.9576 38.4943 23.8056 38.4515 23.635C38.4172 23.4692 38.4369 23.2967 38.5077 23.1429C38.5785 22.9891 38.6967 22.862 38.845 22.7802C39 22.6969 39.1789 22.6689 39.352 22.7009C39.5251 22.7329 39.6821 22.8229 39.7971 22.9561C39.8669 23.0457 39.9321 23.1387 39.9925 23.2349L39.9921 23.7021Z" fill="#696974"/>
<path d="M13.4423 29.709C13.3578 29.9502 13.292 30.1696 13.2052 30.3803C12.5281 32.0261 10.7859 33.011 9.09562 32.7082C7.22239 32.3727 5.92187 30.8977 5.87114 29.0116C5.84499 28.0382 5.86072 27.0637 5.87478 26.0894C5.8856 25.8063 5.80459 25.5274 5.64384 25.2943C4.96676 24.2811 4.28114 23.2713 3.65655 22.2257C3.3617 21.7308 3.18356 21.1752 3.13567 20.6011C3.08779 20.027 3.17141 19.4496 3.3802 18.9126C3.58899 18.3757 3.91745 17.8935 4.34059 17.5026C4.76374 17.1116 5.27044 16.8223 5.82218 16.6566C6.13106 16.5555 6.45393 16.5035 6.77895 16.5027C7.04156 16.5063 7.09281 16.4008 7.09145 16.1589C7.08176 14.4445 7.0727 12.7297 7.09145 11.0153C7.11103 9.17259 8.30957 7.70675 10.0962 7.29873C10.2353 7.267 10.3768 7.24682 10.5193 7.23842C11.5574 7.178 12.5966 7.18967 13.6348 7.22582C14.4194 7.25373 15.1729 7.53927 15.7789 8.03832C15.8304 8.09223 15.8997 8.12565 15.9739 8.13235C16.0482 8.13906 16.1223 8.1186 16.1826 8.07477C18.4441 6.85637 20.712 6.84818 22.9861 8.05019C23.1448 8.13353 23.2472 8.14092 23.3924 8.02207C24.0996 7.43646 24.9982 7.13279 25.9156 7.16936C26.9376 7.19519 27.9662 7.08134 28.9738 7.37061C32.2697 8.31665 33.8867 11.8069 32.4698 14.9289C32.4253 15.0269 32.3278 15.114 32.4147 15.2474C32.6328 15.5857 32.7915 15.9588 32.8839 16.3506C32.9385 16.576 33.1097 16.4845 33.2302 16.4912C34.7794 16.5782 35.9017 17.3135 36.5972 18.6972C36.8501 19.226 36.9739 19.8072 36.9584 20.3932C36.9535 22.2636 36.926 24.1347 36.9632 26.0044C37.0333 29.5324 34.6257 31.6783 32.2468 32.4144C29.7504 33.1869 27.4759 32.6962 25.4968 30.9769C25.2283 30.7436 25.1002 30.7725 24.8465 30.9736C23.197 32.2955 21.0962 32.9203 18.9924 32.7148C16.8887 32.5093 14.9485 31.4897 13.586 29.8736C13.5444 29.8247 13.502 29.7772 13.4423 29.709ZM8.64624 14.0771C8.64624 15.155 8.65186 16.2328 8.64405 17.3106C8.63936 17.9584 8.21697 18.2871 7.59031 18.1506C6.51051 17.9153 5.63509 18.2177 5.07989 19.0176C4.52697 19.8146 4.54614 20.7644 5.13833 21.6738C5.8101 22.7061 6.47947 23.74 7.16239 24.7648C7.3475 25.0309 7.44289 25.3491 7.43468 25.6732C7.41843 26.7378 7.41738 27.8029 7.42426 28.8677C7.43301 30.1944 8.41093 31.1916 9.68614 31.1906C10.9636 31.1894 11.9249 30.1934 11.9328 28.8588C11.9371 28.1447 11.9281 27.4303 11.9395 26.7162C11.9471 26.2404 12.2674 25.9037 12.6959 25.8888C13.085 25.8751 13.3471 26.107 13.5249 26.6222C15.1779 31.4138 20.9651 32.7409 24.5445 29.1499C25.0368 28.656 25.4679 28.6747 25.9269 29.2007C27.3063 30.7819 29.0263 31.4552 31.1103 31.1019C32.9797 30.7849 35.4567 29.1299 35.4032 26.0816C35.3696 24.1603 35.4053 22.2379 35.3939 20.316C35.3975 19.9706 35.3213 19.629 35.1712 19.3178C35.0212 19.0066 34.8015 18.7342 34.529 18.5218C34.2566 18.3094 33.9389 18.1627 33.6005 18.0931C33.2621 18.0235 32.9123 18.0329 32.5781 18.1205C31.8426 18.2976 31.4418 18.0024 31.4315 17.255C31.4291 16.7452 31.2548 16.2511 30.9368 15.8527C30.5425 15.3472 30.5305 15.1694 30.8563 14.6297C31.1854 14.0942 31.3788 13.4864 31.4197 12.8592C31.4606 12.232 31.3478 11.6043 31.091 11.0306C30.8343 10.4569 30.4415 9.95451 29.9465 9.56707C29.4516 9.17964 28.8696 8.91886 28.251 8.80738C27.4396 8.65519 26.6191 8.74488 25.8031 8.73134C25.0835 8.71884 24.4988 9.01665 24.035 9.56186C23.6137 10.0568 23.284 10.1035 22.7577 9.748C20.72 8.37009 18.4641 8.37425 16.4304 9.75967C15.9163 10.1099 15.5783 10.079 15.1792 9.60936C14.9609 9.34193 14.6851 9.12718 14.3723 8.9811C14.0596 8.83501 13.7179 8.76136 13.3727 8.76561C12.5676 8.75748 11.7621 8.74998 10.9572 8.76634C9.57509 8.79446 8.65509 9.73509 8.64655 11.116C8.64072 12.1035 8.64541 13.0905 8.64624 14.0771Z" fill="#696974"/>
<path d="M19.7838 29.7172C18.7749 29.7177 17.7885 29.4189 16.9495 28.8586C16.1105 28.2984 15.4565 27.5018 15.0704 26.5697C14.6843 25.6377 14.5833 24.612 14.7803 23.6225C14.9773 22.633 15.4633 21.7242 16.177 21.0111C16.8907 20.298 17.7999 19.8126 18.7895 19.6164C19.7791 19.4202 20.8047 19.522 21.7365 19.9088C22.6682 20.2957 23.4643 20.9503 24.0239 21.7897C24.5835 22.6292 24.8815 23.6158 24.8802 24.6247C24.8757 25.9746 24.3372 27.2678 23.3823 28.222C22.4274 29.1761 21.1337 29.7137 19.7838 29.7172V29.7172ZM19.7786 28.1572C20.2433 28.158 20.7036 28.0673 21.1332 27.8903C21.5629 27.7133 21.9534 27.4533 22.2826 27.1254C22.6118 26.7974 22.8732 26.4078 23.0518 25.9788C23.2304 25.5498 23.3228 25.0898 23.3236 24.6251C23.3245 24.1604 23.2338 23.7001 23.0568 23.2705C22.8797 22.8409 22.6198 22.4503 22.2918 22.1211C21.9638 21.7919 21.5742 21.5306 21.1453 21.3519C20.7163 21.1733 20.2563 21.0809 19.7916 21.0801C18.8531 21.0784 17.9524 21.4495 17.2876 22.1119C16.6227 22.7743 16.2483 23.6736 16.2466 24.6121C16.2448 25.5506 16.616 26.4513 17.2784 27.1161C17.9407 27.781 18.8401 28.1554 19.7786 28.1572V28.1572Z" fill="#696974"/>
<path d="M33.9205 23.4432C33.921 24.3132 33.921 25.1831 33.9205 26.0531C33.9164 27.9857 32.5247 29.5045 30.5845 29.6989C30.0024 29.7688 29.4121 29.7068 28.8573 29.5175C28.3025 29.3281 27.7974 29.0163 27.3795 28.6052C27.0519 28.3075 26.7915 27.9435 26.6155 27.5373C26.4395 27.1312 26.3519 26.6923 26.3587 26.2497C26.3551 24.3151 26.3551 22.3804 26.3587 20.4458C26.3593 19.886 26.6712 19.524 27.139 19.5233C27.6068 19.5226 27.9153 19.8818 27.916 20.4432C27.9179 22.274 27.9986 24.1098 27.8922 25.9342C27.7985 27.5453 29.5324 28.5384 30.9196 28.0258C31.9293 27.6527 32.3621 27.0512 32.3623 25.9764C32.3623 24.1457 32.3616 22.3149 32.3602 20.484C32.3594 20.1553 32.4202 19.8608 32.7076 19.664C32.8183 19.5823 32.9498 19.5335 33.0869 19.5231C33.2241 19.5127 33.3614 19.5411 33.4831 19.6052C33.6202 19.6677 33.7352 19.7699 33.8134 19.8986C33.8915 20.0274 33.9291 20.1766 33.9214 20.327C33.9194 21.3657 33.9192 22.4044 33.9205 23.4432Z" fill="#696974"/>
<path d="M19.6183 18.0442C18.8444 18.0449 18.0877 17.8165 17.4435 17.3878C16.7992 16.9591 16.2963 16.3493 15.9981 15.6352C15.6999 14.9212 15.6197 14.1348 15.7676 13.3752C15.9156 12.6157 16.2851 11.9169 16.8295 11.367C17.374 10.8171 18.069 10.4406 18.827 10.2851C19.5851 10.1295 20.3722 10.2019 21.0892 10.4929C21.8062 10.784 22.421 11.2808 22.8562 11.9207C23.2913 12.5606 23.5272 13.315 23.5343 14.0888C23.5394 15.1326 23.1297 16.1356 22.3953 16.8774C21.6609 17.6191 20.662 18.0388 19.6183 18.0442ZM19.599 16.485C20.0647 16.4845 20.5197 16.3462 20.907 16.0877C21.2943 15.8292 21.5965 15.4619 21.7755 15.032C21.9546 14.6021 22.0025 14.1289 21.9132 13.6719C21.824 13.2149 21.6016 12.7945 21.274 12.4636C20.9464 12.1327 20.5282 11.906 20.0721 11.8122C19.616 11.7183 19.1424 11.7615 18.7107 11.9361C18.2791 12.1108 17.9088 12.4093 17.6463 12.7939C17.3839 13.1786 17.2411 13.6323 17.2359 14.0979C17.2343 14.4098 17.2942 14.7189 17.412 15.0077C17.5299 15.2965 17.7036 15.5592 17.923 15.7809C18.1424 16.0025 18.4034 16.1788 18.6909 16.2996C18.9785 16.4204 19.287 16.4834 19.5989 16.485H19.599Z" fill="#696974"/>
<path d="M26.57 15.4747C26.57 16.1154 26.5798 16.6558 26.5673 17.1956C26.5546 17.7418 26.2055 18.0749 25.7149 18.0355C25.2922 18.0015 25.0162 17.6906 25.0138 17.2105C25.0073 15.9385 25.0113 14.6664 25.0112 13.3944C25.0112 12.6286 25.0073 11.8632 25.0124 11.097C25.0166 10.4858 25.2858 10.2116 25.8842 10.205C26.4164 10.1995 26.9488 10.1961 27.4807 10.2061C28.6956 10.2288 29.7032 11.0366 29.9236 12.154C30.1478 13.2914 29.5363 14.3598 28.3769 14.8566C28.3219 14.8801 28.2678 14.9058 28.1819 14.9446C28.6776 15.5071 29.157 16.0508 29.6346 16.5955C29.7624 16.7413 29.9015 16.8837 29.9375 17.085C30.0038 17.4544 29.8941 17.7529 29.5594 17.9454C29.2432 18.1272 28.8521 18.0599 28.5761 17.7514C27.9266 17.0263 27.2885 16.2915 26.57 15.4747ZM27.1846 11.7521L27.1839 11.7625C27.1065 11.7677 27.0288 11.7671 26.9515 11.7608C26.6598 11.716 26.5411 11.8106 26.5681 12.1282C26.6 12.5002 26.5779 12.877 26.5774 13.2517C26.5774 13.374 26.5742 13.4865 26.7517 13.4781C27.0862 13.4622 27.4249 13.5133 27.7537 13.4156C27.9367 13.3696 28.0992 13.264 28.2155 13.1154C28.3319 12.9669 28.3956 12.7838 28.3965 12.5951C28.387 12.4067 28.3162 12.2265 28.1947 12.082C28.0733 11.9376 27.9079 11.8368 27.7239 11.7951C27.5454 11.7675 27.365 11.7531 27.1844 11.7521H27.1846Z" fill="#696974"/>
<path d="M9.71639 23.0638C10.3739 22.0546 11.0311 21.0451 11.6881 20.0354C11.833 19.8119 11.9932 19.6131 12.276 19.5666C12.4229 19.5323 12.5769 19.5436 12.7172 19.5991C12.8576 19.6545 12.9777 19.7515 13.0615 19.877C13.2667 20.1755 13.249 20.489 13.0557 20.7888C12.514 21.6272 12.0184 22.502 11.4107 23.29C10.6607 24.2619 10.3225 25.2955 10.4466 26.5247C10.5245 27.2956 10.4627 28.0818 10.4559 28.8611C10.4512 29.3819 10.1578 29.7048 9.69878 29.7136C9.22691 29.7223 8.90232 29.3867 8.90045 28.8568C8.89601 27.597 8.89903 26.3372 8.90952 25.0773C8.91453 24.8582 8.85003 24.643 8.72525 24.4628C7.91782 23.2402 7.11628 22.0137 6.32066 20.7834C6.08253 20.4156 6.10191 20.0533 6.35733 19.7823C6.46482 19.6582 6.60979 19.5724 6.77035 19.5379C6.9309 19.5034 7.09832 19.5221 7.24733 19.5911C7.44878 19.6708 7.56733 19.8458 7.68202 20.022C8.27584 20.9352 8.87163 21.8469 9.46941 22.7573C9.53931 22.8647 9.58545 22.9934 9.71639 23.0638Z" fill="#696974"/>
<path d="M10.1192 14.1468C10.1192 13.1468 10.1153 12.1468 10.1207 11.1468C10.1239 10.5257 10.4057 10.244 11.028 10.2387C11.7811 10.2323 12.5344 10.2323 13.2877 10.2387C13.8527 10.2431 14.2006 10.5521 14.1969 11.0288C14.1932 11.5093 13.8581 11.7901 13.2736 11.7955C12.845 11.7995 12.416 11.8081 11.9881 11.7915C11.7589 11.7826 11.6564 11.8332 11.6732 12.0874C11.6918 12.4116 11.6922 12.7366 11.6745 13.0608C11.6647 13.2722 11.7482 13.3256 11.9453 13.3196C12.3606 13.3071 12.7766 13.3086 13.192 13.3181C13.6594 13.3285 13.9733 13.6202 13.9964 14.0455C14.02 14.4791 13.7133 14.8319 13.2367 14.8635C12.8088 14.8876 12.3799 14.8897 11.9517 14.8699C11.727 14.8616 11.6692 14.9371 11.6732 15.1535C11.6857 15.8416 11.6859 16.5299 11.6738 17.2182C11.6656 17.6488 11.4272 17.9426 11.0696 18.0189C10.8978 18.0602 10.717 18.0414 10.5574 17.9657C10.3977 17.89 10.2688 17.7619 10.192 17.6028C10.1288 17.4458 10.1038 17.276 10.1191 17.1075C10.1181 16.1205 10.1181 15.1336 10.1192 14.1468Z" fill="#696974"/>
</svg>
