<svg width="25" height="24" viewBox="0 0 25 24" fill="none" xmlns="http://www.w3.org/2000/svg">
  <path fill-rule="evenodd" clip-rule="evenodd"
    d="M21.5 8H3.5V11C3.5 11.5523 3.94772 12 4.5 12H20.5C21.0523 12 21.5 11.5523 21.5 11V8ZM7.5 6C7.5 4.34315 8.84315 3 10.5 3H14.5C16.1569 3 17.5 4.34315 17.5 6H21.5C22.6046 6 23.5 6.89543 23.5 8V18C23.5 20.2091 21.7091 22 19.5 22H5.5C3.29086 22 1.5 20.2091 1.5 18V8C1.5 6.89543 2.39543 6 3.5 6H7.5ZM9.5 6H15.5C15.5 5.44772 15.0523 5 14.5 5H10.5C9.94771 5 9.5 5.44772 9.5 6ZM9.5 14H4.5C4.14936 14 3.81278 13.9398 3.5 13.8293V18C3.5 19.1046 4.39543 20 5.5 20H19.5C20.6046 20 21.5 19.1046 21.5 18V13.8293C21.1872 13.9398 20.8506 14 20.5 14H15.5V15.6C15.5 16.3732 14.8732 17 14.1 17H10.9C10.1268 17 9.5 16.3732 9.5 15.6V14ZM11.5 15H13.5V14H11.5V15Z"
    fill="#403ECC" />
</svg>