<svg width="24" height="24" viewBox="0 0 24 24" fill="none" xmlns="http://www.w3.org/2000/svg">
<mask id="path-1-outside-1_1402_20743" maskUnits="userSpaceOnUse" x="1.25452" y="1.3999" width="22" height="23" fill="black">
<rect fill="white" x="1.25452" y="1.3999" width="22" height="23"/>
<path d="M16.9617 2.39996C17.0113 2.46963 17.0939 2.51091 17.121 2.60121C17.1915 2.83595 17.043 3.0145 16.767 3.01472C15.3576 3.01582 13.9483 3.01187 12.5392 3.01669C11.7081 3.01949 11.0351 3.56699 10.8667 4.37132C10.842 4.51258 10.8316 4.65597 10.8357 4.79931C10.8333 5.89289 10.8368 6.9864 10.8312 8.07992C10.8279 8.13621 10.839 8.19242 10.8634 8.24325C10.8878 8.29408 10.9247 8.33786 10.9706 8.37047C11.191 8.54518 11.3681 8.7685 11.488 9.02301C11.608 9.27753 11.6675 9.55634 11.6621 9.8377C11.666 10.9244 11.6653 12.0111 11.6598 13.0978C11.659 13.2354 11.6981 13.3061 11.826 13.358C12.0665 13.4572 12.324 13.5083 12.5841 13.5084C13.7676 13.5078 14.9512 13.5078 16.1347 13.5084C16.4954 13.5084 16.5829 13.5961 16.5834 13.9541C16.5838 14.2885 16.5834 14.6234 16.5834 14.9693C16.6733 14.9661 16.7184 14.8999 16.7724 14.859C17.3061 14.4547 17.8396 14.0499 18.3674 13.638C18.4796 13.549 18.6193 13.5022 18.7623 13.5055C19.1517 13.5007 19.5422 13.5383 19.9303 13.4809C20.7344 13.362 21.3526 12.6901 21.3561 11.8779C21.3664 9.4653 21.3662 7.05271 21.3556 4.64011C21.3512 3.75365 20.613 3.04043 19.7239 3.01741C19.4504 3.01039 19.1766 3.01242 18.903 3.01626C18.7325 3.01861 18.5643 3.01768 18.4935 2.82438C18.4284 2.64654 18.5134 2.51272 18.6451 2.40007H19.959C20.2302 2.4795 20.5109 2.52895 20.7608 2.67335C21.5474 3.12787 21.9727 3.80354 21.9757 4.71434C21.9834 7.07936 21.9836 9.4444 21.9763 11.8095C21.9725 13.0804 21.0116 14.0622 19.7377 14.121C19.7105 14.1245 19.683 14.1251 19.6556 14.1227C19.0063 14.0106 18.492 14.2497 18.0101 14.677C17.546 15.0881 17.0268 15.4374 16.5343 15.8169C16.4138 15.9101 16.2952 15.975 16.1413 15.8978C15.9892 15.8215 15.9639 15.6911 15.9657 15.5373C15.9704 15.1341 15.9575 14.7304 15.9718 14.3276C15.9782 14.1498 15.9179 14.1183 15.754 14.1196C14.7824 14.1274 13.8108 14.121 12.8392 14.1247C12.4484 14.1261 12.061 14.1137 11.6611 13.9513C11.6611 14.4686 11.6616 14.9629 11.6607 15.4573C11.6604 15.5871 11.7573 15.547 11.8221 15.5472C12.6432 15.5493 13.4645 15.5616 14.2852 15.5451C15.1678 15.5274 15.6653 16.0976 15.794 16.6447C15.8461 16.8663 15.8334 17.0931 15.8336 17.3185C15.8339 17.6807 15.836 18.0431 15.8328 18.4053C15.8305 18.6594 15.7303 18.7741 15.5231 18.7732C15.3158 18.7723 15.2198 18.6597 15.2183 18.4014C15.2155 17.9503 15.2203 17.4991 15.2167 17.048C15.2123 16.4898 14.8953 16.1669 14.339 16.1654C13.0527 16.1614 11.7664 16.1614 10.48 16.1654C9.91045 16.1669 9.59529 16.4866 9.59425 17.0593C9.59195 18.3306 9.59195 19.602 9.59425 20.8734C9.59545 21.4411 9.91993 21.7609 10.4865 21.7615C11.1433 21.7625 11.8002 21.7626 12.457 21.7618C12.8207 21.7618 12.9061 21.8458 12.9068 22.2036C12.9068 22.2775 12.9068 22.3517 12.9068 22.4713C13.1637 22.2737 13.3973 22.1028 13.6203 21.9191C13.6831 21.8615 13.7572 21.8176 13.8378 21.7902C13.9184 21.7627 14.0039 21.7523 14.0888 21.7595C14.2117 21.7683 14.3351 21.7682 14.458 21.7593C14.6438 21.7501 14.8205 21.6754 14.9566 21.5484C15.0928 21.4214 15.1797 21.2503 15.202 21.0653C15.223 20.8691 15.2123 20.6696 15.2178 20.4716C15.2246 20.229 15.3185 20.1191 15.5187 20.116C15.7296 20.1127 15.8324 20.2244 15.8319 20.4799C15.8313 20.7657 15.8575 21.0537 15.7774 21.3354C15.6041 21.9453 15.0675 22.3797 14.4342 22.3683C14.1701 22.3551 13.9115 22.4467 13.7145 22.6231C13.4395 22.858 13.1431 23.068 12.8573 23.2904C12.7438 23.3787 12.6287 23.4397 12.4816 23.369C12.3309 23.2965 12.284 23.1716 12.291 23.0156C12.2914 23.0088 12.2914 23.0019 12.291 22.9951C12.2773 22.7934 12.3777 22.5236 12.2491 22.4092C12.1368 22.3096 11.8723 22.3785 11.6749 22.3775C11.2781 22.3757 10.8813 22.3779 10.4844 22.3768C9.58078 22.3746 8.98265 21.7823 8.97865 20.8754C8.97405 19.8297 8.97805 18.7838 8.9764 17.738C8.9764 17.6727 8.99733 17.6032 8.94612 17.5208C8.71157 17.7009 8.48063 17.8777 8.25062 18.055C7.99066 18.255 7.72938 18.4535 7.47188 18.6567C7.35359 18.7499 7.23092 18.7849 7.09297 18.7128C6.96154 18.6441 6.92682 18.5264 6.92868 18.3858C6.93252 18.0919 6.92112 17.7976 6.93339 17.5042C6.9398 17.3514 6.89714 17.3074 6.74106 17.3088C5.89956 17.3167 5.05803 17.3176 4.21646 17.3115C3.21675 17.3053 2.46467 16.6983 2.2828 15.7595C2.26933 15.6926 2.26217 15.6245 2.26144 15.5561C2.2586 14.4899 2.25716 13.4236 2.25712 12.3573C2.25712 12.145 2.3569 12.0418 2.54567 12.035C2.74047 12.028 2.85667 12.1392 2.87053 12.3486C2.87414 12.403 2.87157 12.4579 2.87157 12.5125C2.87189 13.49 2.86713 14.4675 2.87441 15.4449C2.87376 15.7243 2.96719 15.9958 3.13962 16.2154C3.31205 16.4351 3.55341 16.5902 3.82473 16.6557C3.97172 16.6886 4.12228 16.7026 4.27281 16.6974C5.21704 16.6974 6.16126 16.6974 7.10546 16.6974C7.45748 16.6977 7.54422 16.7843 7.54559 17.1324C7.54641 17.344 7.54559 17.5555 7.54559 17.7645C7.62226 17.8007 7.65112 17.7376 7.68934 17.7084C8.0964 17.397 8.49985 17.0808 8.90926 16.7727C8.97356 16.7237 9.0187 16.6536 9.03686 16.5748C9.11663 16.2932 9.28237 16.0437 9.51087 15.8611C9.73938 15.6785 10.0192 15.5721 10.3112 15.5566C10.4886 15.5433 10.6667 15.5417 10.8443 15.552C11.004 15.563 11.0524 15.5151 11.0511 15.3506C11.0434 14.3528 11.0472 13.3546 11.0472 12.3567C11.0472 11.5364 11.0487 10.7162 11.0468 9.89598C11.045 9.09499 10.5101 8.5545 9.71226 8.55346C7.87177 8.55098 6.03123 8.55098 4.19066 8.55346C3.41077 8.55467 2.87918 9.08791 2.87173 9.86517C2.86982 10.0633 2.87688 10.2618 2.86927 10.4598C2.86122 10.6691 2.74008 10.7805 2.54567 10.7735C2.35674 10.7668 2.25433 10.6639 2.25789 10.4514C2.26517 10.0168 2.20959 9.57829 2.37476 9.15441C2.65027 8.44722 3.31433 7.94709 4.07199 7.94287C6.00142 7.93234 7.93091 7.93903 9.86051 7.93886C9.86735 7.93886 9.8742 7.93919 9.88104 7.93952C10.2182 7.95525 10.218 7.95525 10.2183 7.61871C10.2194 6.62096 10.2053 5.6225 10.226 4.62498C10.2489 3.52066 11.0452 2.62724 12.1368 2.43827C12.1642 2.43351 12.1901 2.43186 12.1991 2.3999L16.9617 2.39996Z"/>
</mask>
<path d="M16.9617 2.39996C17.0113 2.46963 17.0939 2.51091 17.121 2.60121C17.1915 2.83595 17.043 3.0145 16.767 3.01472C15.3576 3.01582 13.9483 3.01187 12.5392 3.01669C11.7081 3.01949 11.0351 3.56699 10.8667 4.37132C10.842 4.51258 10.8316 4.65597 10.8357 4.79931C10.8333 5.89289 10.8368 6.9864 10.8312 8.07992C10.8279 8.13621 10.839 8.19242 10.8634 8.24325C10.8878 8.29408 10.9247 8.33786 10.9706 8.37047C11.191 8.54518 11.3681 8.7685 11.488 9.02301C11.608 9.27753 11.6675 9.55634 11.6621 9.8377C11.666 10.9244 11.6653 12.0111 11.6598 13.0978C11.659 13.2354 11.6981 13.3061 11.826 13.358C12.0665 13.4572 12.324 13.5083 12.5841 13.5084C13.7676 13.5078 14.9512 13.5078 16.1347 13.5084C16.4954 13.5084 16.5829 13.5961 16.5834 13.9541C16.5838 14.2885 16.5834 14.6234 16.5834 14.9693C16.6733 14.9661 16.7184 14.8999 16.7724 14.859C17.3061 14.4547 17.8396 14.0499 18.3674 13.638C18.4796 13.549 18.6193 13.5022 18.7623 13.5055C19.1517 13.5007 19.5422 13.5383 19.9303 13.4809C20.7344 13.362 21.3526 12.6901 21.3561 11.8779C21.3664 9.4653 21.3662 7.05271 21.3556 4.64011C21.3512 3.75365 20.613 3.04043 19.7239 3.01741C19.4504 3.01039 19.1766 3.01242 18.903 3.01626C18.7325 3.01861 18.5643 3.01768 18.4935 2.82438C18.4284 2.64654 18.5134 2.51272 18.6451 2.40007H19.959C20.2302 2.4795 20.5109 2.52895 20.7608 2.67335C21.5474 3.12787 21.9727 3.80354 21.9757 4.71434C21.9834 7.07936 21.9836 9.4444 21.9763 11.8095C21.9725 13.0804 21.0116 14.0622 19.7377 14.121C19.7105 14.1245 19.683 14.1251 19.6556 14.1227C19.0063 14.0106 18.492 14.2497 18.0101 14.677C17.546 15.0881 17.0268 15.4374 16.5343 15.8169C16.4138 15.9101 16.2952 15.975 16.1413 15.8978C15.9892 15.8215 15.9639 15.6911 15.9657 15.5373C15.9704 15.1341 15.9575 14.7304 15.9718 14.3276C15.9782 14.1498 15.9179 14.1183 15.754 14.1196C14.7824 14.1274 13.8108 14.121 12.8392 14.1247C12.4484 14.1261 12.061 14.1137 11.6611 13.9513C11.6611 14.4686 11.6616 14.9629 11.6607 15.4573C11.6604 15.5871 11.7573 15.547 11.8221 15.5472C12.6432 15.5493 13.4645 15.5616 14.2852 15.5451C15.1678 15.5274 15.6653 16.0976 15.794 16.6447C15.8461 16.8663 15.8334 17.0931 15.8336 17.3185C15.8339 17.6807 15.836 18.0431 15.8328 18.4053C15.8305 18.6594 15.7303 18.7741 15.5231 18.7732C15.3158 18.7723 15.2198 18.6597 15.2183 18.4014C15.2155 17.9503 15.2203 17.4991 15.2167 17.048C15.2123 16.4898 14.8953 16.1669 14.339 16.1654C13.0527 16.1614 11.7664 16.1614 10.48 16.1654C9.91045 16.1669 9.59529 16.4866 9.59425 17.0593C9.59195 18.3306 9.59195 19.602 9.59425 20.8734C9.59545 21.4411 9.91993 21.7609 10.4865 21.7615C11.1433 21.7625 11.8002 21.7626 12.457 21.7618C12.8207 21.7618 12.9061 21.8458 12.9068 22.2036C12.9068 22.2775 12.9068 22.3517 12.9068 22.4713C13.1637 22.2737 13.3973 22.1028 13.6203 21.9191C13.6831 21.8615 13.7572 21.8176 13.8378 21.7902C13.9184 21.7627 14.0039 21.7523 14.0888 21.7595C14.2117 21.7683 14.3351 21.7682 14.458 21.7593C14.6438 21.7501 14.8205 21.6754 14.9566 21.5484C15.0928 21.4214 15.1797 21.2503 15.202 21.0653C15.223 20.8691 15.2123 20.6696 15.2178 20.4716C15.2246 20.229 15.3185 20.1191 15.5187 20.116C15.7296 20.1127 15.8324 20.2244 15.8319 20.4799C15.8313 20.7657 15.8575 21.0537 15.7774 21.3354C15.6041 21.9453 15.0675 22.3797 14.4342 22.3683C14.1701 22.3551 13.9115 22.4467 13.7145 22.6231C13.4395 22.858 13.1431 23.068 12.8573 23.2904C12.7438 23.3787 12.6287 23.4397 12.4816 23.369C12.3309 23.2965 12.284 23.1716 12.291 23.0156C12.2914 23.0088 12.2914 23.0019 12.291 22.9951C12.2773 22.7934 12.3777 22.5236 12.2491 22.4092C12.1368 22.3096 11.8723 22.3785 11.6749 22.3775C11.2781 22.3757 10.8813 22.3779 10.4844 22.3768C9.58078 22.3746 8.98265 21.7823 8.97865 20.8754C8.97405 19.8297 8.97805 18.7838 8.9764 17.738C8.9764 17.6727 8.99733 17.6032 8.94612 17.5208C8.71157 17.7009 8.48063 17.8777 8.25062 18.055C7.99066 18.255 7.72938 18.4535 7.47188 18.6567C7.35359 18.7499 7.23092 18.7849 7.09297 18.7128C6.96154 18.6441 6.92682 18.5264 6.92868 18.3858C6.93252 18.0919 6.92112 17.7976 6.93339 17.5042C6.9398 17.3514 6.89714 17.3074 6.74106 17.3088C5.89956 17.3167 5.05803 17.3176 4.21646 17.3115C3.21675 17.3053 2.46467 16.6983 2.2828 15.7595C2.26933 15.6926 2.26217 15.6245 2.26144 15.5561C2.2586 14.4899 2.25716 13.4236 2.25712 12.3573C2.25712 12.145 2.3569 12.0418 2.54567 12.035C2.74047 12.028 2.85667 12.1392 2.87053 12.3486C2.87414 12.403 2.87157 12.4579 2.87157 12.5125C2.87189 13.49 2.86713 14.4675 2.87441 15.4449C2.87376 15.7243 2.96719 15.9958 3.13962 16.2154C3.31205 16.4351 3.55341 16.5902 3.82473 16.6557C3.97172 16.6886 4.12228 16.7026 4.27281 16.6974C5.21704 16.6974 6.16126 16.6974 7.10546 16.6974C7.45748 16.6977 7.54422 16.7843 7.54559 17.1324C7.54641 17.344 7.54559 17.5555 7.54559 17.7645C7.62226 17.8007 7.65112 17.7376 7.68934 17.7084C8.0964 17.397 8.49985 17.0808 8.90926 16.7727C8.97356 16.7237 9.0187 16.6536 9.03686 16.5748C9.11663 16.2932 9.28237 16.0437 9.51087 15.8611C9.73938 15.6785 10.0192 15.5721 10.3112 15.5566C10.4886 15.5433 10.6667 15.5417 10.8443 15.552C11.004 15.563 11.0524 15.5151 11.0511 15.3506C11.0434 14.3528 11.0472 13.3546 11.0472 12.3567C11.0472 11.5364 11.0487 10.7162 11.0468 9.89598C11.045 9.09499 10.5101 8.5545 9.71226 8.55346C7.87177 8.55098 6.03123 8.55098 4.19066 8.55346C3.41077 8.55467 2.87918 9.08791 2.87173 9.86517C2.86982 10.0633 2.87688 10.2618 2.86927 10.4598C2.86122 10.6691 2.74008 10.7805 2.54567 10.7735C2.35674 10.7668 2.25433 10.6639 2.25789 10.4514C2.26517 10.0168 2.20959 9.57829 2.37476 9.15441C2.65027 8.44722 3.31433 7.94709 4.07199 7.94287C6.00142 7.93234 7.93091 7.93903 9.86051 7.93886C9.86735 7.93886 9.8742 7.93919 9.88104 7.93952C10.2182 7.95525 10.218 7.95525 10.2183 7.61871C10.2194 6.62096 10.2053 5.6225 10.226 4.62498C10.2489 3.52066 11.0452 2.62724 12.1368 2.43827C12.1642 2.43351 12.1901 2.43186 12.1991 2.3999L16.9617 2.39996Z" fill="#696974"/>
<path d="M16.9617 2.39996C17.0113 2.46963 17.0939 2.51091 17.121 2.60121C17.1915 2.83595 17.043 3.0145 16.767 3.01472C15.3576 3.01582 13.9483 3.01187 12.5392 3.01669C11.7081 3.01949 11.0351 3.56699 10.8667 4.37132C10.842 4.51258 10.8316 4.65597 10.8357 4.79931C10.8333 5.89289 10.8368 6.9864 10.8312 8.07992C10.8279 8.13621 10.839 8.19242 10.8634 8.24325C10.8878 8.29408 10.9247 8.33786 10.9706 8.37047C11.191 8.54518 11.3681 8.7685 11.488 9.02301C11.608 9.27753 11.6675 9.55634 11.6621 9.8377C11.666 10.9244 11.6653 12.0111 11.6598 13.0978C11.659 13.2354 11.6981 13.3061 11.826 13.358C12.0665 13.4572 12.324 13.5083 12.5841 13.5084C13.7676 13.5078 14.9512 13.5078 16.1347 13.5084C16.4954 13.5084 16.5829 13.5961 16.5834 13.9541C16.5838 14.2885 16.5834 14.6234 16.5834 14.9693C16.6733 14.9661 16.7184 14.8999 16.7724 14.859C17.3061 14.4547 17.8396 14.0499 18.3674 13.638C18.4796 13.549 18.6193 13.5022 18.7623 13.5055C19.1517 13.5007 19.5422 13.5383 19.9303 13.4809C20.7344 13.362 21.3526 12.6901 21.3561 11.8779C21.3664 9.4653 21.3662 7.05271 21.3556 4.64011C21.3512 3.75365 20.613 3.04043 19.7239 3.01741C19.4504 3.01039 19.1766 3.01242 18.903 3.01626C18.7325 3.01861 18.5643 3.01768 18.4935 2.82438C18.4284 2.64654 18.5134 2.51272 18.6451 2.40007H19.959C20.2302 2.4795 20.5109 2.52895 20.7608 2.67335C21.5474 3.12787 21.9727 3.80354 21.9757 4.71434C21.9834 7.07936 21.9836 9.4444 21.9763 11.8095C21.9725 13.0804 21.0116 14.0622 19.7377 14.121C19.7105 14.1245 19.683 14.1251 19.6556 14.1227C19.0063 14.0106 18.492 14.2497 18.0101 14.677C17.546 15.0881 17.0268 15.4374 16.5343 15.8169C16.4138 15.9101 16.2952 15.975 16.1413 15.8978C15.9892 15.8215 15.9639 15.6911 15.9657 15.5373C15.9704 15.1341 15.9575 14.7304 15.9718 14.3276C15.9782 14.1498 15.9179 14.1183 15.754 14.1196C14.7824 14.1274 13.8108 14.121 12.8392 14.1247C12.4484 14.1261 12.061 14.1137 11.6611 13.9513C11.6611 14.4686 11.6616 14.9629 11.6607 15.4573C11.6604 15.5871 11.7573 15.547 11.8221 15.5472C12.6432 15.5493 13.4645 15.5616 14.2852 15.5451C15.1678 15.5274 15.6653 16.0976 15.794 16.6447C15.8461 16.8663 15.8334 17.0931 15.8336 17.3185C15.8339 17.6807 15.836 18.0431 15.8328 18.4053C15.8305 18.6594 15.7303 18.7741 15.5231 18.7732C15.3158 18.7723 15.2198 18.6597 15.2183 18.4014C15.2155 17.9503 15.2203 17.4991 15.2167 17.048C15.2123 16.4898 14.8953 16.1669 14.339 16.1654C13.0527 16.1614 11.7664 16.1614 10.48 16.1654C9.91045 16.1669 9.59529 16.4866 9.59425 17.0593C9.59195 18.3306 9.59195 19.602 9.59425 20.8734C9.59545 21.4411 9.91993 21.7609 10.4865 21.7615C11.1433 21.7625 11.8002 21.7626 12.457 21.7618C12.8207 21.7618 12.9061 21.8458 12.9068 22.2036C12.9068 22.2775 12.9068 22.3517 12.9068 22.4713C13.1637 22.2737 13.3973 22.1028 13.6203 21.9191C13.6831 21.8615 13.7572 21.8176 13.8378 21.7902C13.9184 21.7627 14.0039 21.7523 14.0888 21.7595C14.2117 21.7683 14.3351 21.7682 14.458 21.7593C14.6438 21.7501 14.8205 21.6754 14.9566 21.5484C15.0928 21.4214 15.1797 21.2503 15.202 21.0653C15.223 20.8691 15.2123 20.6696 15.2178 20.4716C15.2246 20.229 15.3185 20.1191 15.5187 20.116C15.7296 20.1127 15.8324 20.2244 15.8319 20.4799C15.8313 20.7657 15.8575 21.0537 15.7774 21.3354C15.6041 21.9453 15.0675 22.3797 14.4342 22.3683C14.1701 22.3551 13.9115 22.4467 13.7145 22.6231C13.4395 22.858 13.1431 23.068 12.8573 23.2904C12.7438 23.3787 12.6287 23.4397 12.4816 23.369C12.3309 23.2965 12.284 23.1716 12.291 23.0156C12.2914 23.0088 12.2914 23.0019 12.291 22.9951C12.2773 22.7934 12.3777 22.5236 12.2491 22.4092C12.1368 22.3096 11.8723 22.3785 11.6749 22.3775C11.2781 22.3757 10.8813 22.3779 10.4844 22.3768C9.58078 22.3746 8.98265 21.7823 8.97865 20.8754C8.97405 19.8297 8.97805 18.7838 8.9764 17.738C8.9764 17.6727 8.99733 17.6032 8.94612 17.5208C8.71157 17.7009 8.48063 17.8777 8.25062 18.055C7.99066 18.255 7.72938 18.4535 7.47188 18.6567C7.35359 18.7499 7.23092 18.7849 7.09297 18.7128C6.96154 18.6441 6.92682 18.5264 6.92868 18.3858C6.93252 18.0919 6.92112 17.7976 6.93339 17.5042C6.9398 17.3514 6.89714 17.3074 6.74106 17.3088C5.89956 17.3167 5.05803 17.3176 4.21646 17.3115C3.21675 17.3053 2.46467 16.6983 2.2828 15.7595C2.26933 15.6926 2.26217 15.6245 2.26144 15.5561C2.2586 14.4899 2.25716 13.4236 2.25712 12.3573C2.25712 12.145 2.3569 12.0418 2.54567 12.035C2.74047 12.028 2.85667 12.1392 2.87053 12.3486C2.87414 12.403 2.87157 12.4579 2.87157 12.5125C2.87189 13.49 2.86713 14.4675 2.87441 15.4449C2.87376 15.7243 2.96719 15.9958 3.13962 16.2154C3.31205 16.4351 3.55341 16.5902 3.82473 16.6557C3.97172 16.6886 4.12228 16.7026 4.27281 16.6974C5.21704 16.6974 6.16126 16.6974 7.10546 16.6974C7.45748 16.6977 7.54422 16.7843 7.54559 17.1324C7.54641 17.344 7.54559 17.5555 7.54559 17.7645C7.62226 17.8007 7.65112 17.7376 7.68934 17.7084C8.0964 17.397 8.49985 17.0808 8.90926 16.7727C8.97356 16.7237 9.0187 16.6536 9.03686 16.5748C9.11663 16.2932 9.28237 16.0437 9.51087 15.8611C9.73938 15.6785 10.0192 15.5721 10.3112 15.5566C10.4886 15.5433 10.6667 15.5417 10.8443 15.552C11.004 15.563 11.0524 15.5151 11.0511 15.3506C11.0434 14.3528 11.0472 13.3546 11.0472 12.3567C11.0472 11.5364 11.0487 10.7162 11.0468 9.89598C11.045 9.09499 10.5101 8.5545 9.71226 8.55346C7.87177 8.55098 6.03123 8.55098 4.19066 8.55346C3.41077 8.55467 2.87918 9.08791 2.87173 9.86517C2.86982 10.0633 2.87688 10.2618 2.86927 10.4598C2.86122 10.6691 2.74008 10.7805 2.54567 10.7735C2.35674 10.7668 2.25433 10.6639 2.25789 10.4514C2.26517 10.0168 2.20959 9.57829 2.37476 9.15441C2.65027 8.44722 3.31433 7.94709 4.07199 7.94287C6.00142 7.93234 7.93091 7.93903 9.86051 7.93886C9.86735 7.93886 9.8742 7.93919 9.88104 7.93952C10.2182 7.95525 10.218 7.95525 10.2183 7.61871C10.2194 6.62096 10.2053 5.6225 10.226 4.62498C10.2489 3.52066 11.0452 2.62724 12.1368 2.43827C12.1642 2.43351 12.1901 2.43186 12.1991 2.3999L16.9617 2.39996Z" stroke="#696974" stroke-width="0.6" mask="url(#path-1-outside-1_1402_20743)"/>
<path d="M17.3296 7.24001C17.8312 7.24001 18.303 7.23907 18.7748 7.24028C19.3177 7.2416 19.6374 7.56213 19.6381 8.10832C19.6391 9.05124 19.6388 9.99417 19.637 10.9371C19.636 11.4113 19.3335 11.764 18.8645 11.771C17.8391 11.7863 16.8131 11.7759 15.7875 11.7671C15.4788 11.757 15.177 11.6733 14.9072 11.5229C14.8679 11.5023 14.8234 11.4329 14.7709 11.5072C14.6672 11.654 14.5136 11.6372 14.3627 11.6369C13.8908 11.6358 13.4189 11.6375 12.947 11.6361C12.6602 11.6353 12.5589 11.5401 12.5585 11.2619C12.5568 10.0663 12.5568 8.87061 12.5585 7.67496C12.559 7.40518 12.6594 7.30667 12.9323 7.30519C13.4384 7.30245 13.9444 7.30393 14.4506 7.30519C14.5048 7.30519 14.5777 7.29477 14.6103 7.32421C14.791 7.48741 14.8721 7.33945 14.971 7.22422C15.1178 7.05307 15.2612 6.87802 15.4196 6.71794C15.8244 6.30876 16.0624 5.83664 16.0889 5.24803C16.0934 5.14669 16.1225 5.04799 16.1738 4.96048C16.225 4.87297 16.2968 4.7993 16.3829 4.74586C16.4691 4.69242 16.5669 4.66083 16.668 4.65383C16.7691 4.64683 16.8704 4.66463 16.963 4.70568C17.1076 4.77092 17.2241 4.88576 17.2916 5.02945C17.6131 5.65738 17.664 6.30394 17.4305 6.971C17.4018 7.05312 17.3693 7.13448 17.3296 7.24001Z" fill="#696974"/>
<path d="M7.38393 12.3531C7.37583 12.4044 7.36701 12.4573 7.35923 12.5099C7.26827 13.1273 7.26844 13.1245 6.6501 13.0907C6.54709 13.0852 6.51867 13.0555 6.53992 12.9585C6.56483 12.8459 6.58247 12.7318 6.60295 12.6183C6.65426 12.3332 6.65421 12.3333 6.95092 12.3333C7.08016 12.3333 7.20937 12.3342 7.33854 12.3362C7.35438 12.3397 7.36966 12.3454 7.38393 12.3531Z" fill="white"/>
<path d="M8.58007 11.9689C8.58007 12.5181 8.4327 12.8539 8.17016 13.1421C7.82887 13.5166 7.39799 13.7655 6.95622 13.9982C6.91431 14.0221 6.86706 14.0351 6.81882 14.036C6.77058 14.0369 6.72289 14.0256 6.68015 14.0031C6.22205 13.7588 5.76451 13.5105 5.42218 13.1059C5.06074 12.6788 4.93752 12.1928 5.127 11.6572C5.17899 11.5048 5.26457 11.366 5.37742 11.2513C5.49026 11.1365 5.62746 11.0486 5.77886 10.9941C5.93025 10.9397 6.09195 10.92 6.25196 10.9366C6.41198 10.9532 6.5662 11.0057 6.70321 11.0901C6.77248 11.1311 6.81531 11.1516 6.89899 11.104C7.6895 10.6546 8.58346 11.1998 8.58007 11.9689Z" fill="#696974"/>
<path d="M7.96424 12.0208C7.96424 12.3777 7.86095 12.5805 7.69589 12.7542C7.46315 12.9996 7.17564 13.1705 6.88621 13.3387C6.864 13.3535 6.83778 13.3611 6.81111 13.3604C6.78444 13.3597 6.75862 13.3508 6.7372 13.3349C6.44016 13.1658 6.1463 12.9916 5.91367 12.7361C5.69281 12.4935 5.5974 12.2128 5.69822 11.888C5.72064 11.8013 5.76841 11.7233 5.83541 11.664C5.90242 11.6046 5.9856 11.5667 6.07429 11.555C6.27144 11.5226 6.41382 11.6016 6.52554 11.7649C6.69038 12.0061 6.91628 12.0205 7.07389 11.8088C7.25537 11.5648 7.40044 11.5048 7.62092 11.5826C7.8414 11.6604 7.96522 11.8587 7.96424 12.0208Z" fill="white"/>
<path d="M16.7133 5.26367C16.9611 5.72088 17.0175 6.15539 16.8951 6.61408C16.8262 6.87174 16.704 7.10884 16.604 7.35455C16.4818 7.65453 16.613 7.84964 16.9419 7.8515C17.5434 7.85496 18.1449 7.85375 18.7465 7.85562C18.9856 7.85638 19.0216 7.89136 19.0218 8.12841C19.0226 9.05028 19.0186 9.97221 19.0245 10.894C19.0258 11.0881 18.95 11.166 18.7594 11.1654C17.8229 11.1623 16.8865 11.1657 15.95 11.1628C15.5848 11.1651 15.2299 11.0416 14.9448 10.8132C14.9058 10.7877 14.8742 10.7526 14.8529 10.7112C14.8317 10.6698 14.8216 10.6235 14.8236 10.577C14.8297 9.86684 14.8297 9.15665 14.8236 8.44642C14.8236 8.39942 14.833 8.35289 14.8513 8.30962C14.8697 8.26635 14.8965 8.22722 14.9303 8.19457C15.2804 7.802 15.6237 7.4034 15.9784 7.01515C16.403 6.55054 16.6664 6.02042 16.6873 5.3828C16.6934 5.34257 16.7021 5.30278 16.7133 5.26367Z" fill="white"/>
<path d="M13.1738 9.46989C13.1738 9.00506 13.1785 8.54018 13.1707 8.07551C13.1686 7.94833 13.2041 7.91105 13.3307 7.91653C13.5766 7.92651 13.8233 7.92201 14.0695 7.91807C14.164 7.91653 14.2148 7.92503 14.214 8.04651C14.2083 8.99675 14.2079 9.94687 14.2129 10.8969C14.2132 10.9945 14.187 11.0258 14.0874 11.0233C13.8276 11.0166 13.5672 11.0157 13.3075 11.0236C13.1975 11.0269 13.1702 10.9911 13.1715 10.885C13.1769 10.4132 13.1738 9.94151 13.1738 9.46989Z" fill="white"/>
</svg>
