<svg width="20" height="20" viewBox="0 0 20 20" fill="none" xmlns="http://www.w3.org/2000/svg">
<path fill-rule="evenodd" clip-rule="evenodd" d="M0 4C0 1.79086 1.79086 0 4 0H16C18.2091 0 20 1.79086 20 4V12.3431C20 13.404 19.5786 14.4214 18.8284 15.1716L15.1716 18.8284C14.4214 19.5786 13.404 20 12.3431 20H4C1.79086 20 0 18.2091 0 16V4ZM11 18H4C2.89543 18 2 17.1046 2 16V4C2 2.89543 2.89543 2 4 2H16C17.1046 2 18 2.89543 18 4V11H14C12.3431 11 11 12.3431 11 14V18ZM13 17.8891C13.2824 17.7909 13.5419 17.6296 13.7574 17.4142L17.4142 13.7574C17.6296 13.5419 17.7909 13.2824 17.8891 13H14C13.4477 13 13 13.4477 13 14V17.8891Z" fill="#696974"/>
</svg>
