<svg width="19" height="21" viewBox="0 0 19 21" fill="none" xmlns="http://www.w3.org/2000/svg">
<path fill-rule="evenodd" clip-rule="evenodd" d="M9.5 13C11.7091 13 13.5 11.2091 13.5 9C13.5 6.79086 11.7091 5 9.5 5C7.29086 5 5.5 6.79086 5.5 9C5.5 11.2091 7.29086 13 9.5 13ZM9.5 11C8.39543 11 7.5 10.1046 7.5 9C7.5 7.89543 8.39543 7 9.5 7C10.6046 7 11.5 7.89543 11.5 9C11.5 10.1046 10.6046 11 9.5 11Z" fill="#92929D"/>
<path fill-rule="evenodd" clip-rule="evenodd" d="M0.5 8.87006C0.5 3.96756 4.53307 0 9.5 0C14.4669 0 18.5 3.96756 18.5 8.87006C18.5 11.2916 17.5094 13.5597 15.795 15.2093L10.2013 20.7128C9.81219 21.0957 9.18788 21.0957 8.79871 20.7129L3.19735 15.2024C1.48444 13.5459 0.5 11.2842 0.5 8.87006ZM14.4003 13.7759C15.7357 12.4909 16.5 10.7409 16.5 8.87006C16.5 5.07953 13.3696 2 9.5 2C5.63037 2 2.5 5.07953 2.5 8.87006C2.5 10.7352 3.25964 12.4804 4.59383 13.7707L9.49996 18.5972L14.4003 13.7759Z" fill="#92929D"/>
</svg>
