<svg width="21" height="20" viewBox="0 0 21 20" fill="none" xmlns="http://www.w3.org/2000/svg">
<path fill-rule="evenodd" clip-rule="evenodd" d="M20.5 3V17.1818C20.5 18.736 19.2487 20 17.7 20H3.3C1.75134 20 0.5 18.736 0.5 17.1818V3C0.5 1.34315 1.84315 0 3.5 0H17.5C19.1569 0 20.5 1.34315 20.5 3ZM18.5 15.8293C18.1872 15.9398 17.8506 16 17.5 16H3.5C3.14936 16 2.81278 15.9398 2.5 15.8293V17.1818C2.5 17.6359 2.86043 18 3.3 18H17.7C18.1396 18 18.5 17.6359 18.5 17.1818V15.8293ZM18.5 13V3C18.5 2.44772 18.0523 2 17.5 2H3.5C2.94772 2 2.5 2.44772 2.5 3V13C2.5 13.5523 2.94772 14 3.5 14H17.5C18.0523 14 18.5 13.5523 18.5 13ZM11.5 4H12.4531C13.0054 4 13.4531 4.44772 13.4531 5V5.45425C13.4531 6.00653 13.0054 6.45425 12.4531 6.45425C12.1022 6.45425 11.7935 6.27349 11.615 6H9.51395V7.00091H11.5C12.6046 7.00091 13.5 7.89634 13.5 9.00091V10C13.5 11.1046 12.6046 12 11.5 12C11.4953 12.5483 11.0494 12.9912 10.5 12.9912C9.95064 12.9912 9.50474 12.5483 9.50004 12H8.50001C7.9378 12 7.48608 11.5367 7.50033 10.9747L7.51427 10.4246C7.52826 9.87251 7.98718 9.43628 8.53928 9.45027C8.92057 9.45994 9.24659 9.68179 9.40722 10H11.5V9.00091H9.51395C8.40938 9.00091 7.51395 8.10548 7.51395 7.00091V6C7.51395 4.90008 8.40186 4.00754 9.50001 4.00005C9.5 3.44772 9.94771 3 10.5 3C11.0523 3 11.5 3.44772 11.5 4Z" fill="#92929D"/>
</svg>
