<svg width="16" height="17" viewBox="0 0 16 17" fill="none" xmlns="http://www.w3.org/2000/svg">
<path fill-rule="evenodd" clip-rule="evenodd" d="M5.95567 11.8993C6.28085 12.2245 6.80792 12.2248 7.13342 11.9001L7.13364 11.8999L7.13418 11.8993L10.9054 8.12808L12.3196 6.71387C13.1658 5.86773 13.1658 4.49587 12.3196 3.64974C11.4735 2.8036 10.1016 2.8036 9.2555 3.64974L4.07005 8.83519C4.06979 8.83545 4.06953 8.83571 4.06927 8.83596C2.70321 10.2029 2.70347 12.4184 4.07005 13.7849C5.43688 15.1518 7.65296 15.1518 9.0198 13.7849L13.2624 9.5423C13.4577 9.34703 13.7743 9.34703 13.9695 9.5423C14.1648 9.73756 14.1648 10.0541 13.9695 10.2494L9.7269 14.492C7.96954 16.2494 5.1203 16.2494 3.36294 14.492C1.61718 12.7463 1.60566 9.92301 3.32837 8.16302L3.32818 8.16284L3.36294 8.12808L8.54839 2.94263C9.78505 1.70597 11.7901 1.70597 13.0267 2.94263C14.2634 4.17929 14.2634 6.18431 13.0267 7.42097L11.6125 8.83519L7.84128 12.6064L7.80653 12.6412L7.80607 12.6407C7.08775 13.3222 5.9529 13.3108 5.24856 12.6064C4.5326 11.8905 4.5326 10.7297 5.24856 10.0137L10.434 4.82825C10.6293 4.63299 10.9459 4.63299 11.1411 4.82825C11.3364 5.02351 11.3364 5.34009 11.1411 5.53536L5.95567 10.7208C5.63023 11.0462 5.63023 11.5739 5.95567 11.8993Z" fill="#92929D"/>
</svg>
