<?xml version="1.0" encoding="UTF-8"?>
<svg width="24px" height="24px" viewBox="0 0 24 24" version="1.1" xmlns="http://www.w3.org/2000/svg" xmlns:xlink="http://www.w3.org/1999/xlink">
    <!-- Generator: Sketch 51.3 (57544) - http://www.bohemiancoding.com/sketch -->
    <title>photo-camera</title>
    <desc>Created with Sketch.</desc>
    <defs></defs>
    <g id="photo-camera" stroke="none" stroke-width="1" fill="none" fill-rule="evenodd">
        <path d="M4,9.96757216 L4,17.0159625 C4,18.0918037 4.87510204,18.9655172 5.95265306,18.9655172 L18.0473469,18.9655172 C19.124898,18.9655172 20,18.0918037 20,17.0159625 L20,9.96757216 C20,8.9438929 19.1673469,8.11256102 18.1420408,8.11256102 L15.5428571,8.11256102 L15.4808163,7.84197064 C15.2293878,6.75634901 14.2726531,6 13.1559184,6 L10.8408163,6 C9.72734694,6 8.77061224,6.75634901 8.51591837,7.84197064 L8.45387755,8.11256102 L5.85795918,8.11256102 C4.83265306,8.11256102 4,8.94715303 4,9.96757216 Z M8.77387755,8.91129165 C8.96,8.91129165 9.12,8.78414677 9.16244898,8.60157977 L9.29632653,8.02127752 C9.46612245,7.30078989 10.0995918,6.79873063 10.8408163,6.79873063 L13.1559184,6.79873063 C13.8971429,6.79873063 14.5306122,7.30078989 14.7004082,8.02127752 L14.8342857,8.60157977 C14.8767347,8.78088665 15.0367347,8.91129165 15.2228571,8.91129165 L18.1387755,8.91129165 C18.7232653,8.91129165 19.1967347,9.38400978 19.1967347,9.96757216 L19.1967347,17.0159625 C19.1967347,17.6516869 18.6808163,18.1667866 18.0440816,18.1667866 L5.95265306,18.1667866 C5.31591837,18.1667866 4.8,17.6516869 4.8,17.0159625 L4.8,9.96757216 C4.8,9.38400978 5.27346939,8.91129165 5.85795918,8.91129165 L8.77387755,8.91129165 Z" id="Shape" fill="#FFFFFF" fill-rule="nonzero"></path>
        <circle id="Oval" fill="#FFFFFF" fill-rule="nonzero" cx="6.75862069" cy="10.6896552" r="1"></circle>
        <path d="M12.0689655,17.0344828 C13.9310345,17.0344828 15.4482759,15.5172414 15.4482759,13.6551724 C15.4482759,11.7931034 13.9310345,10.2758621 12.0689655,10.2758621 C10.2068966,10.2758621 8.68965517,11.7898194 8.68965517,13.6551724 C8.68965517,15.5205255 10.2068966,17.0344828 12.0689655,17.0344828 Z M12.0689655,11.0804598 C13.4876847,11.0804598 14.6436782,12.2364532 14.6436782,13.6551724 C14.6436782,15.0738916 13.4876847,16.2298851 12.0689655,16.2298851 C10.6502463,16.2298851 9.49425287,15.0738916 9.49425287,13.6551724 C9.49425287,12.2364532 10.6502463,11.0804598 12.0689655,11.0804598 Z" id="Shape" fill="#FFFFFF" fill-rule="nonzero"></path>
    </g>
</svg>