<svg width="34" height="34" viewBox="0 0 34 34" fill="none" xmlns="http://www.w3.org/2000/svg">
<path d="M17 32.8333C17 33.2934 17.3735 33.6688 17.8332 33.6461C26.6508 33.2119 33.6667 25.9253 33.6667 16.9999C33.6667 7.79517 26.2047 0.333252 17 0.333252C7.79526 0.333252 0.333344 7.79517 0.333344 16.9999C0.333344 24.7084 5.56649 31.1946 12.6739 33.0996C13.1828 33.2361 13.6667 32.8406 13.6667 32.3137V20.3333H12C11.0795 20.3333 10.3333 19.5871 10.3333 18.6666C10.3333 17.7461 11.0795 16.9999 12 16.9999H13.6667V13.6666C13.6667 10.9052 15.9052 8.66659 18.6667 8.66659H20.3333C21.2538 8.66659 22 9.41279 22 10.3333C22 11.2537 21.2538 11.9999 20.3333 11.9999H18.6667C17.7462 11.9999 17 12.7461 17 13.6666V16.9999H20.3333C21.2538 16.9999 22 17.7461 22 18.6666C22 19.5871 21.2538 20.3333 20.3333 20.3333H17V32.8333Z" fill="#696974"/>
</svg>
