<svg width="38" height="38" viewBox="0 0 38 38" fill="none" xmlns="http://www.w3.org/2000/svg">
<rect width="38" height="38" rx="10" fill="white"/>
<path fill-rule="evenodd" clip-rule="evenodd" d="M21.9999 19.9125V25C21.9999 25.3788 21.7859 25.725 21.4472 25.8944L17.4472 27.8944C16.7823 28.2269 15.9999 27.7434 15.9999 27V19.9125L9.22599 11.6332C8.69177 10.9803 9.15632 10 9.99994 10H27.9999C28.8436 10 29.3081 10.9803 28.7739 11.6332L21.9999 19.9125ZM19.9999 24.382V19.5556C19.9999 19.3247 20.0798 19.101 20.226 18.9223L25.8897 12H12.1102L17.7739 18.9223C17.9201 19.101 17.9999 19.3247 17.9999 19.5556V25.382L19.9999 24.382Z" fill="#92929D"/>
</svg>
