<svg width="32" height="32" viewBox="0 0 32 32" fill="none" xmlns="http://www.w3.org/2000/svg">
<path fill-rule="evenodd" clip-rule="evenodd" d="M26.3029 7.53626C28.1963 9.8385 29.3332 12.7865 29.3332 16C29.3332 23.3638 23.3636 29.3333 15.9998 29.3333C8.63604 29.3333 2.6665 23.3638 2.6665 16C2.6665 8.63619 8.63604 2.66665 15.9998 2.66665C19.1897 2.66665 22.118 3.78683 24.4127 5.65527L25.1471 4.92084L25.4961 3.06168C25.632 2.33794 26.3289 1.86138 27.0526 1.99725C27.7763 2.13313 28.2529 2.82998 28.117 3.55371L28.0409 3.95895L28.4462 3.88287C29.1699 3.747 29.8668 4.22356 30.0026 4.94729C30.1385 5.67103 29.6619 6.36788 28.9382 6.50375L26.965 6.8742L26.3029 7.53626ZM22.5146 7.55331C20.7126 6.16142 18.4529 5.33332 15.9998 5.33332C10.1088 5.33332 5.33317 10.109 5.33317 16C5.33317 21.891 10.1088 26.6667 15.9998 26.6667C21.8909 26.6667 26.6665 21.891 26.6665 16C26.6665 13.5232 25.8223 11.2436 24.406 9.43313L22.5015 11.3376C23.4445 12.6503 23.9998 14.2603 23.9998 16C23.9998 20.4183 20.4181 24 15.9998 24C11.5816 24 7.99984 20.4183 7.99984 16C7.99984 11.5817 11.5816 7.99999 15.9998 7.99999C17.7157 7.99999 19.3054 8.54019 20.6081 9.4598L22.5146 7.55331ZM18.68 11.388C17.8925 10.9294 16.9768 10.6667 15.9998 10.6667C13.0543 10.6667 10.6665 13.0545 10.6665 16C10.6665 18.9455 13.0543 21.3333 15.9998 21.3333C18.9454 21.3333 21.3332 18.9455 21.3332 16C21.3332 14.9988 21.0573 14.0621 20.5775 13.2617L18.5662 15.273C18.6315 15.5041 18.6665 15.748 18.6665 16C18.6665 17.4727 17.4726 18.6667 15.9998 18.6667C14.5271 18.6667 13.3332 17.4727 13.3332 16C13.3332 14.5272 14.5271 13.3333 15.9998 13.3333C16.2255 13.3333 16.4446 13.3613 16.6538 13.4141L18.68 11.388Z" fill="#403ECC"/>
</svg>
