<svg width="21" height="20" viewBox="0 0 21 20" fill="none" xmlns="http://www.w3.org/2000/svg">
  <path fill-rule="evenodd" clip-rule="evenodd"
    d="M16.5 8.00596L10.5 2.60596L4.50001 8.00596V17.1111C4.50001 17.4793 4.79848 17.7778 5.16667 17.7778H6.72223V15.3063C6.72223 13.7232 8.01803 12.4444 9.61111 12.4444H11.3889C12.982 12.4444 14.2778 13.7232 14.2778 15.3063V17.7778H15.8333C16.2015 17.7778 16.5 17.4793 16.5 17.1111V8.00596ZM18.7222 17.1111C18.7222 18.7066 17.4288 20 15.8333 20H13.1667C12.553 20 12.0556 19.5025 12.0556 18.8889V15.3063C12.0556 14.9564 11.7603 14.6667 11.3889 14.6667H9.61111C9.23968 14.6667 8.94444 14.9564 8.94444 15.3063V18.8889C8.94444 19.5025 8.44698 20 7.83333 20H5.16667C3.57118 20 2.27778 18.7066 2.27778 17.1111V10.0001C1.82263 10.3422 1.17339 10.2857 0.785238 9.85441C0.374728 9.39828 0.411704 8.69574 0.867826 8.28523L9.75671 0.285229C10.1793 -0.0950762 10.8207 -0.0950762 11.2433 0.285229L20.1322 8.28523C20.5883 8.69574 20.6253 9.39828 20.2148 9.85441C19.8266 10.2857 19.1774 10.3422 18.7222 10.0001V17.1111Z"
    fill="#403ECC" />
</svg>