<svg width="34" height="34" viewBox="0 0 34 34" fill="none" xmlns="http://www.w3.org/2000/svg">
<path fill-rule="evenodd" clip-rule="evenodd" d="M8.66665 0.333252C4.06428 0.333252 0.333313 4.06422 0.333313 8.66659V25.3333C0.333313 29.9356 4.06428 33.6666 8.66665 33.6666H25.3333C29.9356 33.6666 33.6666 29.9356 33.6666 25.3333V8.66659C33.6666 4.06422 29.9356 0.333252 25.3333 0.333252H8.66665ZM17 25.3333C21.6023 25.3333 25.3333 21.6023 25.3333 16.9999C25.3333 12.3976 21.6023 8.66659 17 8.66659C12.3976 8.66659 8.66665 12.3976 8.66665 16.9999C8.66665 21.6023 12.3976 25.3333 17 25.3333ZM28.6666 6.99992C28.6666 7.92039 27.9205 8.66659 27 8.66659C26.0795 8.66659 25.3333 7.92039 25.3333 6.99992C25.3333 6.07945 26.0795 5.33325 27 5.33325C27.9205 5.33325 28.6666 6.07945 28.6666 6.99992Z" fill="#696974"/>
</svg>
