<svg width="32" height="32" viewBox="0 0 32 32" fill="none" xmlns="http://www.w3.org/2000/svg">
<path d="M16.3114 0C18.0883 1.17075 19.543 2.64042 20.5478 4.5345C21.897 7.07775 22.3728 9.78233 21.8449 12.6018C21.607 13.8722 21.7552 14.8518 22.7449 15.7566C23.5199 16.4649 24.139 17.3435 24.8244 18.1492C25.3962 18.8214 25.5983 19.5695 25.1994 20.3938C24.8059 21.2064 24.1212 21.5545 23.2292 21.543C22.4016 21.5323 21.5739 21.5408 20.6865 21.5408C20.6282 21.9693 20.5745 22.372 20.519 22.7741C20.3564 23.9512 20.356 23.9511 19.2392 24.0755C19.0892 26.4114 18.9944 27.4664 20.6076 28.0098C21.0395 26.7088 21.9106 25.8932 23.2905 25.6521C23.4202 25.6294 23.5533 25.4753 23.6348 25.3496C24.6835 23.7329 26.1859 22.9516 28.0765 23.2143C30.0457 23.4879 31.286 24.7278 31.879 26.6174C31.9143 26.712 31.9549 26.8045 32.0007 26.8945V28.1397C31.9104 28.4138 31.8298 28.6917 31.7282 28.9616C31.4011 29.8094 30.8273 30.5397 30.0808 31.058C29.3344 31.5763 28.4496 31.8588 27.541 31.869C24.7403 31.8874 21.9395 31.872 19.1387 31.8773C18.6804 31.8783 18.2637 31.8039 18.2713 31.242C18.2786 30.6773 18.7076 30.6265 19.1584 30.6273C21.8555 30.6323 24.5525 30.6372 27.2495 30.6222C27.6837 30.627 28.1164 30.5687 28.534 30.4491C29.8347 30.0462 30.761 28.7935 30.7532 27.5249C30.7457 26.2879 29.6716 24.927 28.3931 24.5346C27.0927 24.1354 25.6405 24.6642 24.851 25.8241C25.1667 26.0512 25.5506 26.2273 25.7734 26.5241C25.9258 26.7273 25.9699 27.1591 25.8549 27.3813C25.6799 27.7202 25.3206 27.6722 24.9938 27.4545C23.3947 26.3894 22.1236 26.9128 21.7891 28.7704C21.7079 29.222 21.44 29.389 21.0028 29.3818C19.4225 29.3561 17.9845 27.9496 17.9369 26.3503C17.9147 25.6065 17.933 24.8614 17.933 24.0738H14.1944C14.1944 24.7769 14.201 25.4754 14.193 26.1738C14.1891 26.9591 13.8992 27.716 13.3776 28.303C12.856 28.89 12.1385 29.2668 11.3591 29.3631C10.6569 29.4566 10.4351 29.287 10.3258 28.5733C10.0973 27.077 8.53904 26.4179 7.31437 27.3003C7.23037 27.3609 7.1497 27.485 7.07045 27.4826C6.79179 27.4743 6.3937 27.519 6.26962 27.3624C6.13879 27.1973 6.16745 26.7458 6.30979 26.5603C6.53879 26.2614 6.91812 26.0778 7.24054 25.8411C6.9322 24.9538 5.22845 24.164 3.96254 24.4732C2.46087 24.8399 1.24454 26.3801 1.38012 27.7837C1.52845 29.3184 2.95271 30.6102 4.58012 30.6227C7.31846 30.644 10.0571 30.6289 12.7956 30.6302C12.9821 30.6302 13.2173 30.5699 13.344 30.6593C13.5535 30.807 13.8269 31.0557 13.8242 31.2586C13.8215 31.4614 13.5256 31.6738 13.3325 31.8548C13.2755 31.9084 13.1325 31.8741 13.0291 31.8741C10.1869 31.8737 7.34437 31.8937 4.50245 31.8642C2.49412 31.8435 0.692955 30.3821 0.248872 28.4705C-0.165045 26.6888 0.526454 25.2872 1.85995 24.1797C3.26829 23.0105 4.85587 22.8547 6.52229 23.5904C7.32368 23.9505 7.99805 24.5436 8.45754 25.2925C8.5492 25.4363 8.6882 25.6244 8.83079 25.6498C10.2101 25.8956 11.0846 26.7067 11.5248 28.0378C12.3183 27.7725 12.8347 27.2683 12.9154 26.4859C12.9974 25.6903 12.9335 24.8797 12.9335 24.082C11.7668 23.95 11.766 23.9501 11.6059 22.7763C11.5526 22.3863 11.5038 21.9958 11.4445 21.5408C10.5885 21.5408 9.74245 21.5307 8.8967 21.5435C8.00254 21.5572 7.3157 21.2058 6.9237 20.3967C6.52629 19.5765 6.72262 18.8246 7.29937 18.1513C8.21704 17.0802 9.10979 15.986 10.0645 14.9488C10.4385 14.5424 10.4844 14.1581 10.4079 13.6541C10.1717 12.0965 9.95054 10.5388 10.176 8.95142C10.7032 5.24017 12.4266 2.27958 15.5799 0.1945C15.6613 0.134149 15.7392 0.069211 15.8132 0H16.3114ZM19.5511 20.2758C19.587 20.1602 19.6167 20.0427 19.6404 19.9239C19.9814 17.3757 20.3062 14.8253 20.663 12.2795C21.001 9.86825 20.6797 7.57217 19.5875 5.38583C19.4375 5.0865 19.2753 4.968 18.9308 4.97133C17.022 4.98994 15.113 4.9903 13.2038 4.97242C12.8678 4.96958 12.6924 5.06875 12.5403 5.37708C11.5513 7.3825 11.1341 9.48608 11.4081 11.7115C11.6285 13.5018 11.8665 15.2899 12.1033 17.0782C12.2442 18.1416 12.3985 19.2032 12.5482 20.2759L19.5511 20.2758ZM10.7188 16.0758C9.77812 17.1734 8.94279 18.1141 8.1492 19.0888C7.76904 19.5555 8.01829 20.2258 8.59829 20.2656C9.47329 20.3257 10.3566 20.2813 11.2781 20.2813C11.0918 18.8823 10.9156 17.556 10.7188 16.0764V16.0758ZM21.4021 16.069C21.2055 17.5721 21.0305 18.909 20.8495 20.2917C21.7625 20.2917 22.588 20.3204 23.4104 20.2827C24.0795 20.2521 24.3891 19.5994 23.97 19.0812C23.1805 18.1048 22.3426 17.1666 21.4025 16.0696L21.4021 16.069ZM12.7096 21.5712C12.7697 21.9829 12.825 22.3622 12.8805 22.7429H19.2518C19.3064 22.3372 19.3557 21.971 19.4095 21.5712H12.7096ZM13.5966 3.55908L13.7177 3.73483H18.4453L18.5286 3.54317L16.0501 1.22942L13.5966 3.55908Z" fill="#403ECC"/>
<path d="M16.181 30.5361C16.3464 30.7773 16.6456 31.0233 16.6371 31.2582C16.6296 31.4679 16.2822 31.6653 16.0848 31.8681C15.8719 31.6603 15.5361 31.4781 15.4854 31.2363C15.4456 31.0465 15.7585 30.7828 15.9146 30.5519L16.181 30.5361Z" fill="#403ECC"/>
<path d="M19.1726 10.9749C19.169 11.5895 18.9835 12.1893 18.6393 12.6985C18.2952 13.2078 17.8079 13.6037 17.239 13.8362C16.6701 14.0688 16.045 14.1276 15.4427 14.0053C14.8404 13.8829 14.2878 13.5849 13.8547 13.1488C13.4216 12.7127 13.1274 12.1581 13.0092 11.5549C12.891 10.9518 12.9542 10.3272 13.1907 9.75986C13.4271 9.19256 13.8264 8.70803 14.338 8.36741C14.8496 8.0268 15.4506 7.84536 16.0652 7.84601C16.8919 7.84969 17.6834 8.18121 18.266 8.76782C18.8486 9.35442 19.1746 10.1482 19.1726 10.9749V10.9749ZM16.0521 12.8225C16.4218 12.8246 16.7839 12.7168 17.0922 12.5128C17.4006 12.3089 17.6414 12.0178 17.7841 11.6768C17.9268 11.3357 17.9649 10.9599 17.8936 10.5971C17.8224 10.2343 17.6449 9.90083 17.3838 9.63905C17.1227 9.37728 16.7897 9.19898 16.4271 9.12679C16.0645 9.05459 15.6886 9.09176 15.3471 9.23357C15.0057 9.37538 14.7141 9.61544 14.5093 9.92328C14.3045 10.2311 14.1958 10.5929 14.197 10.9626C14.2044 11.4527 14.4022 11.9207 14.7483 12.2678C15.0945 12.6149 15.562 12.8138 16.0521 12.8225V12.8225Z" fill="#403ECC"/>
</svg>
