<svg width="35" height="16" viewBox="0 0 35 16" fill="none" xmlns="http://www.w3.org/2000/svg">
<rect opacity="0.2" width="35" height="16" rx="5" fill="#171725"/>
<path fill-rule="evenodd" clip-rule="evenodd" d="M12.4002 8.50004C12.4002 7.4415 11.4535 6.58337 10.2858 6.58337C9.11813 6.58337 8.17151 7.4415 8.17151 8.50004C8.17151 9.55859 9.11813 10.4167 10.2858 10.4167C11.4535 10.4167 12.4002 9.55859 12.4002 8.50004Z" fill="white"/>
<path fill-rule="evenodd" clip-rule="evenodd" d="M19.8003 8.50004C19.8003 7.4415 18.8537 6.58337 17.686 6.58337C16.5183 6.58337 15.5717 7.4415 15.5717 8.50004C15.5717 9.55859 16.5183 10.4167 17.686 10.4167C18.8537 10.4167 19.8003 9.55859 19.8003 8.50004Z" fill="white"/>
<path fill-rule="evenodd" clip-rule="evenodd" d="M27.2005 8.50004C27.2005 7.4415 26.2538 6.58337 25.0861 6.58337C23.9184 6.58337 22.9718 7.4415 22.9718 8.50004C22.9718 9.55859 23.9184 10.4167 25.0861 10.4167C26.2538 10.4167 27.2005 9.55859 27.2005 8.50004Z" fill="white"/>
</svg>
