<svg width="16" height="16" viewBox="0 0 16 16" fill="none" xmlns="http://www.w3.org/2000/svg">
<path fill-rule="evenodd" clip-rule="evenodd" d="M6.94281 2.11442C7.44291 1.61433 8.12118 1.33337 8.82843 1.33337H12.6667C13.7712 1.33337 14.6667 2.2288 14.6667 3.33337V7.17161C14.6667 7.87886 14.3857 8.55713 13.8856 9.05723L8.74755 14.1953C7.9665 14.9764 6.70017 14.9764 5.91912 14.1953L1.80474 10.0809C1.02369 9.29987 1.02369 8.03354 1.80474 7.25249L6.94281 2.11442ZM8.82843 2.66671C8.47481 2.66671 8.13567 2.80718 7.88562 3.05723L2.74755 8.1953C2.4872 8.45565 2.4872 8.87776 2.74755 9.13811L6.86193 13.2525C7.12228 13.5128 7.54439 13.5128 7.80474 13.2525L12.9428 8.11442C13.1929 7.86437 13.3333 7.52524 13.3333 7.17161V3.33337C13.3333 2.96518 13.0349 2.66671 12.6667 2.66671H8.82843Z" fill="#F4BF59"/>
<path d="M2.39053 6.66669L3.33333 5.72388L10.2761 12.6667L9.33333 13.6095L2.39053 6.66669Z" fill="#F4BF59"/>
<path fill-rule="evenodd" clip-rule="evenodd" d="M10 6.66667C10.3682 6.66667 10.6667 6.36819 10.6667 6C10.6667 5.63181 10.3682 5.33333 10 5.33333C9.63181 5.33333 9.33333 5.63181 9.33333 6C9.33333 6.36819 9.63181 6.66667 10 6.66667ZM10 8C11.1046 8 12 7.10457 12 6C12 4.89543 11.1046 4 10 4C8.89543 4 8 4.89543 8 6C8 7.10457 8.89543 8 10 8Z" fill="#F4BF59"/>
</svg>
