<svg width="14" height="16" viewBox="0 0 14 16" fill="none" xmlns="http://www.w3.org/2000/svg">
<path fill-rule="evenodd" clip-rule="evenodd" d="M2.99999 0.666626H9.35441C9.75012 0.666626 10.1254 0.84239 10.3787 1.14638L13.3576 4.72108C13.5573 4.9607 13.6667 5.26274 13.6667 5.57466V12.6666C13.6667 14.1394 12.4728 15.3333 11 15.3333H2.99999C1.52724 15.3333 0.333328 14.1394 0.333328 12.6666V3.33329C0.333328 1.86053 1.52724 0.666626 2.99999 0.666626ZM12.3333 12.6666V5.99996H10.3333C9.59695 5.99996 9 5.40301 9 4.66663V1.99996H2.99999C2.26362 1.99996 1.66666 2.59691 1.66666 3.33329V12.6666C1.66666 13.403 2.26362 14 2.99999 14H11C11.7364 14 12.3333 13.403 12.3333 12.6666ZM11.5766 4.66663L10.3333 3.17466V4.66663H11.5766ZM4.33333 9.33329C3.96514 9.33329 3.66666 9.03482 3.66666 8.66663C3.66666 8.29844 3.96514 7.99996 4.33333 7.99996H9.66666C10.0349 7.99996 10.3333 8.29844 10.3333 8.66663C10.3333 9.03482 10.0349 9.33329 9.66666 9.33329H4.33333ZM4.33333 12C3.96514 12 3.66666 11.7015 3.66666 11.3333C3.66666 10.9651 3.96514 10.6666 4.33333 10.6666H8.33333C8.70152 10.6666 9 10.9651 9 11.3333C9 11.7015 8.70152 12 8.33333 12H4.33333ZM4.33333 6.66663C3.96514 6.66663 3.66666 6.36815 3.66666 5.99996C3.66666 5.63177 3.96514 5.33329 4.33333 5.33329H6.33333C6.70152 5.33329 7 5.63177 7 5.99996C7 6.36815 6.70152 6.66663 6.33333 6.66663H4.33333Z" fill="#30AB7E"/>
</svg>
