<svg width="34" height="25" viewBox="0 0 34 25" fill="none" xmlns="http://www.w3.org/2000/svg">
<path d="M8.32 24.7612C6.77333 24.7612 5.36 24.3612 4.08 23.5612C2.85333 22.7078 1.86667 21.5612 1.12 20.1212C0.373333 18.6278 0 16.9212 0 15.0012C0 13.4012 0.32 11.8545 0.96 10.3612C1.6 8.8145 2.48 7.3745 3.6 6.04117C4.72 4.70784 6.05333 3.5345 7.6 2.52117C9.14667 1.4545 10.8 0.681172 12.56 0.201172L16.08 4.44117C13.8933 5.40117 12.1067 6.54784 10.72 7.88117C9.38667 9.2145 8.72 10.3612 8.72 11.3212C8.72 11.9612 8.93333 12.5478 9.36 13.0812C9.84 13.6145 10.4267 14.1212 11.12 14.6012C12.3467 15.5612 13.1733 16.4412 13.6 17.2412C14.08 17.9878 14.32 18.8145 14.32 19.7212C14.32 21.2678 13.76 22.4945 12.64 23.4012C11.52 24.3078 10.08 24.7612 8.32 24.7612ZM26.16 24.7612C24.6133 24.7612 23.2 24.3612 21.92 23.5612C20.6933 22.7078 19.7067 21.5612 18.96 20.1212C18.2133 18.6278 17.84 16.9212 17.84 15.0012C17.84 13.4012 18.16 11.8545 18.8 10.3612C19.44 8.8145 20.32 7.3745 21.44 6.04117C22.56 4.70784 23.8933 3.5345 25.44 2.52117C26.9867 1.4545 28.64 0.681172 30.4 0.201172L33.92 4.44117C31.7333 5.40117 29.9467 6.54784 28.56 7.88117C27.2267 9.2145 26.56 10.3612 26.56 11.3212C26.56 11.9612 26.7733 12.5478 27.2 13.0812C27.68 13.6145 28.2667 14.1212 28.96 14.6012C30.1867 15.5612 31.0133 16.4412 31.44 17.2412C31.92 17.9878 32.16 18.8145 32.16 19.7212C32.16 21.2678 31.6 22.4945 30.48 23.4012C29.36 24.3078 27.92 24.7612 26.16 24.7612Z" fill="#22216D"/>
</svg>
