<svg width="22" height="22" viewBox="0 0 22 22" fill="none" xmlns="http://www.w3.org/2000/svg">
<path fill-rule="evenodd" clip-rule="evenodd" d="M2.72737 5.32043C5.62818 1.31085 11.2534 -0.186114 15.9921 2.01207C21.2113 4.43312 23.3787 10.4198 20.8332 15.3837C18.2876 20.3476 11.993 22.409 6.77382 19.9879C4.67524 19.0145 3.01354 17.4348 1.98798 15.4908C1.72756 14.9971 1.9372 14.3962 2.45622 14.1485C2.97524 13.9008 3.6071 14.1002 3.86751 14.5938C4.68806 16.1492 6.01513 17.4108 7.69565 18.1904C11.871 20.1272 16.9067 18.4781 18.9431 14.507C20.9796 10.5359 19.2457 5.7465 15.0703 3.80965C11.0682 1.95317 6.27569 3.39124 4.09154 7.01081H5.88165C6.46234 7.01081 6.93308 7.45853 6.93308 8.01081C6.93308 8.56309 6.46234 9.01081 5.88165 9.01081H1.67594C1.09525 9.01081 0.624512 8.56309 0.624512 8.01081V4.01081C0.624512 3.45853 1.09525 3.01081 1.67594 3.01081C2.25663 3.01081 2.72737 3.45853 2.72737 4.01081V5.32043Z" fill="#92929D"/>
</svg>
