<svg width="25" height="24" viewBox="0 0 25 24" fill="none" xmlns="http://www.w3.org/2000/svg">
<path d="M14.2071 7.29289C13.8166 6.90237 13.1834 6.90237 12.7929 7.29289C12.4024 7.68342 12.4024 8.31658 12.7929 8.70711L14.2071 7.29289ZM17.5 12L18.2071 12.7071C18.5976 12.3166 18.5976 11.6834 18.2071 11.2929L17.5 12ZM12.7929 15.2929C12.4024 15.6834 12.4024 16.3166 12.7929 16.7071C13.1834 17.0976 13.8166 17.0976 14.2071 16.7071L12.7929 15.2929ZM12.7929 8.70711L16.7929 12.7071L18.2071 11.2929L14.2071 7.29289L12.7929 8.70711ZM16.7929 11.2929L12.7929 15.2929L14.2071 16.7071L18.2071 12.7071L16.7929 11.2929Z" fill="#403ECC"/>
<path d="M8.20711 7.29289C7.81658 6.90237 7.18342 6.90237 6.79289 7.29289C6.40237 7.68342 6.40237 8.31658 6.79289 8.70711L8.20711 7.29289ZM11.5 12L12.2071 12.7071C12.5976 12.3166 12.5976 11.6834 12.2071 11.2929L11.5 12ZM6.79289 15.2929C6.40237 15.6834 6.40237 16.3166 6.79289 16.7071C7.18342 17.0976 7.81658 17.0976 8.20711 16.7071L6.79289 15.2929ZM6.79289 8.70711L10.7929 12.7071L12.2071 11.2929L8.20711 7.29289L6.79289 8.70711ZM10.7929 11.2929L6.79289 15.2929L8.20711 16.7071L12.2071 12.7071L10.7929 11.2929Z" fill="#403ECC"/>
</svg>
