<svg
  width="25"
  height="24"
  viewBox="0 0 25 24"
  fill="none"
  xmlns="http://www.w3.org/2000/svg"
>
  <path
    fill-rule="evenodd"
    clip-rule="evenodd"
    d="M7.58506 12C7.58506 10.8954 6.66778 10 5.53625 10C4.40471 10 3.48743 10.8954 3.48743 12C3.48743 13.1046 4.40471 14 5.53625 14C6.66778 14 7.58506 13.1046 7.58506 12Z"
    fill="#92929D"
  />
  <path
    fill-rule="evenodd"
    clip-rule="evenodd"
    d="M14.7559 12C14.7559 10.8954 13.8386 10 12.7071 10C11.5756 10 10.6583 10.8954 10.6583 12C10.6583 13.1046 11.5756 14 12.7071 14C13.8386 14 14.7559 13.1046 14.7559 12Z"
    fill="#92929D"
  />
  <path
    fill-rule="evenodd"
    clip-rule="evenodd"
    d="M21.9268 12C21.9268 10.8954 21.0095 10 19.878 10C18.7464 10 17.8292 10.8954 17.8292 12C17.8292 13.1046 18.7464 14 19.878 14C21.0095 14 21.9268 13.1046 21.9268 12Z"
    fill="#92929D"
  />
</svg>