<svg width="34" height="34" viewBox="0 0 34 34" fill="none" xmlns="http://www.w3.org/2000/svg">
<path fill-rule="evenodd" clip-rule="evenodd" d="M5.33331 0.333252C2.5719 0.333252 0.333313 2.57184 0.333313 5.33325V28.6666C0.333313 31.4281 2.5719 33.6666 5.33331 33.6666H28.6666C31.4281 33.6666 33.6666 31.4281 33.6666 28.6666V5.33325C33.6666 2.57184 31.4281 0.333252 28.6666 0.333252H5.33331ZM18.6666 6.99992C19.5871 6.99992 20.3333 7.74612 20.3333 8.66659C20.3333 10.5075 21.8256 11.9999 23.6666 11.9999C24.5871 11.9999 25.3333 12.7461 25.3333 13.6666C25.3333 14.5871 24.5871 15.3333 23.6666 15.3333C22.4523 15.3333 21.3138 15.0086 20.3333 14.4414V21.1666V21.1719C20.3303 24.3911 17.7198 26.9999 14.5 26.9999C11.2783 26.9999 8.66665 24.3883 8.66665 21.1666C8.66665 18.5378 10.6218 15.9176 13.3351 15.3669C14.2371 15.1838 15.1168 15.7666 15.3 16.6688C15.4831 17.5708 14.9003 18.4504 13.9981 18.6336C12.9368 18.8491 12 20.0208 12 21.1666C12 22.5473 13.1193 23.6666 14.5 23.6666C15.8806 23.6666 17 22.5473 17 21.1666V8.66659C17 7.74612 17.7461 6.99992 18.6666 6.99992Z" fill="#696974"/>
</svg>
