<svg xmlns="http://www.w3.org/2000/svg" version="1.1" xmlns:xlink="http://www.w3.org/1999/xlink" xmlns:svgjs="http://svgjs.com/svgjs" width="42" height="42" x="0" y="0" viewBox="0 0 128 128" style="enable-background:new 0 0 42 42" xml:space="preserve" class=""><g><path xmlns="http://www.w3.org/2000/svg" d="M87.85,87.725a33.6,33.6,0,0,0,0-47.45c-.021-.023-.028-.053-.05-.075s-.052-.029-.075-.05a33.6,33.6,0,0,0-47.45,0c-.023.021-.053.028-.075.05s-.029.052-.05.075a33.6,33.6,0,0,0,0,47.45c.021.023.028.053.05.075s.052.029.075.05a33.6,33.6,0,0,0,47.45,0c.023-.021.053-.028.075-.05S87.829,87.748,87.85,87.725ZM43.418,86.7l4.436-4.436a1.5,1.5,0,0,0-2.121-2.121L41.3,84.582a30.6,30.6,0,0,1,0-41.164l4.436,4.437a1.5,1.5,0,0,0,2.122-2.122L43.418,41.3a30.6,30.6,0,0,1,41.164,0l-4.437,4.436a1.5,1.5,0,1,0,2.122,2.122L86.7,43.418a30.6,30.6,0,0,1,0,41.164l-4.436-4.436a1.5,1.5,0,0,0-2.121,2.121L84.582,86.7a30.6,30.6,0,0,1-41.164,0Z" fill="#000000" data-original="#000000" class=""></path><circle xmlns="http://www.w3.org/2000/svg" cx="64.015" cy="38.009" r="2.5" fill="#000000" data-original="#000000" class=""></circle><circle xmlns="http://www.w3.org/2000/svg" cx="64.015" cy="89.962" r="2.5" fill="#000000" data-original="#000000" class=""></circle><circle xmlns="http://www.w3.org/2000/svg" cx="38.038" cy="63.985" r="2.5" fill="#000000" data-original="#000000" class=""></circle><circle xmlns="http://www.w3.org/2000/svg" cx="89.991" cy="63.985" r="2.5" fill="#000000" data-original="#000000" class=""></circle><path xmlns="http://www.w3.org/2000/svg" d="M97.271,37.133l.839-.839a5.6,5.6,0,0,0,6.834-8.757l-4.358-4.358a5.6,5.6,0,0,0-8.757,6.835l-.823.822a42.633,42.633,0,0,0-20.308-9.1V19.273a6.6,6.6,0,0,0-.172-13.19H57.474a6.6,6.6,0,0,0-.172,13.19v2.463a42.633,42.633,0,0,0-20.308,9.1l-.823-.822a5.6,5.6,0,0,0-8.757-6.835l-4.358,4.358a5.593,5.593,0,0,0,6.835,8.757l.838.839a42.792,42.792,0,1,0,66.542,0ZM94.78,25.3a2.609,2.609,0,0,1,3.685,0l4.358,4.358a2.606,2.606,0,0,1,0,3.685,2.668,2.668,0,0,1-3.685,0L94.78,28.985A2.609,2.609,0,0,1,94.78,25.3Zm-.961,6.966L95.857,34.3l-.556.556c-.655-.7-1.337-1.38-2.038-2.038ZM53.875,12.683a3.6,3.6,0,0,1,3.6-3.6H70.526a3.6,3.6,0,1,1,0,7.2H57.474A3.6,3.6,0,0,1,53.875,12.683Zm13.823,6.6v2.1c-1.22-.105-2.451-.17-3.7-.17s-2.478.065-3.7.17v-2.1ZM25.177,33.343a2.606,2.606,0,0,1,0-3.685L29.535,25.3a2.606,2.606,0,0,1,3.685,3.685l-4.358,4.358A2.668,2.668,0,0,1,25.177,33.343Zm6.966.961,2.038-2.038.556.556c-.7.658-1.383,1.335-2.038,2.038ZM64,103.792A39.792,39.792,0,1,1,103.792,64,39.838,39.838,0,0,1,64,103.792Z" fill="#000000" data-original="#000000" class=""></path><path xmlns="http://www.w3.org/2000/svg" d="M69.312,64a5.268,5.268,0,0,0-1.292-3.434V49.42a4.02,4.02,0,1,0-8.04,0V60.566A5.254,5.254,0,0,0,58.728,63.6L48.605,73.725a4.019,4.019,0,1,0,5.684,5.683L64.428,69.269A5.3,5.3,0,0,0,69.312,64ZM64,48.4a1.021,1.021,0,0,1,1.02,1.02v9.371a5.1,5.1,0,0,0-2.04,0V49.42A1.021,1.021,0,0,1,64,48.4ZM52.167,77.287a1.045,1.045,0,0,1-1.441,0,1.02,1.02,0,0,1,0-1.441L59.6,66.972a5.362,5.362,0,0,0,1.445,1.439ZM64,66.313A2.313,2.313,0,1,1,66.312,64,2.316,2.316,0,0,1,64,66.313Z" fill="#000000" data-original="#000000" class=""></path></g></svg>