<svg width="14" height="16" viewBox="0 0 14 16" fill="none" xmlns="http://www.w3.org/2000/svg">
<path fill-rule="evenodd" clip-rule="evenodd" d="M2.97432 4.51961C2.97432 2.29964 4.73935 0.5 6.91663 0.5C9.0939 0.5 10.8589 2.29964 10.8589 4.51961C10.8589 5.91354 10.163 7.14175 9.10615 7.86278C11.478 8.76743 13.1666 11.0993 13.1666 13.8333V15.5H0.666626V13.8333C0.666626 11.0993 2.35525 8.76743 4.7271 7.86278C3.67021 7.14175 2.97432 5.91354 2.97432 4.51961ZM6.91663 6.77451C8.13803 6.77451 9.12816 5.76496 9.12816 4.51961C9.12816 3.27426 8.13803 2.26471 6.91663 2.26471C5.69523 2.26471 4.70509 3.27426 4.70509 4.51961C4.70509 5.76496 5.69523 6.77451 6.91663 6.77451ZM6.91663 9.22549C4.45285 9.22549 2.44957 11.2357 2.3984 13.7353H11.4349C11.3837 11.2357 9.3804 9.22549 6.91663 9.22549Z" fill="#92929D"/>
</svg>
